<?xml version="1.0" encoding="utf-8"?>
<!-- Generator: Adobe Illustrator 15.1.0, SVG Export Plug-In . SVG Version: 6.00 Build 0)  -->
<!DOCTYPE svg PUBLIC "-//W3C//DTD SVG 1.1//EN" "http://www.w3.org/Graphics/SVG/1.1/DTD/svg11.dtd">
<svg version="1.1" id="Layer_1" xmlns="http://www.w3.org/2000/svg" xmlns:xlink="http://www.w3.org/1999/xlink" x="0px" y="0px"
	 width="636px" height="288px" viewBox="141.5 8 636 288" enable-background="new 141.5 8 636 288" xml:space="preserve">
<rect x="142" y="8.5" fill="#FFFFFF" stroke="#000000" stroke-miterlimit="10" width="635" height="287"/>
<g>
	<defs>
		<rect id="SVGID_1_" width="800" height="600"/>
	</defs>
	<clipPath id="SVGID_2_">
		<use xlink:href="#SVGID_1_"  overflow="visible"/>
	</clipPath>
	<path clip-path="url(#SVGID_2_)" fill-opacity="0" d="M0,0h800v600H0V0z"/>
	<path clip-path="url(#SVGID_2_)" fill="#FFF2CC" d="M162.926,104.338H277.69v41.076H162.926V104.338z"/>
	
		<path clip-path="url(#SVGID_2_)" fill="none" stroke="#000000" stroke-width="2" stroke-linejoin="round" stroke-miterlimit="10" d="
		M162.926,104.338H277.69v41.076H162.926V104.338z"/>
	<path clip-path="url(#SVGID_2_)" d="M193.993,129.635c0,0.376,0.123,0.694,0.369,0.955c0.246,0.253,0.593,0.379,1.042,0.379
		c0.434,0,0.778-0.126,1.031-0.379c0.253-0.261,0.38-0.579,0.38-0.955c0-0.383-0.126-0.705-0.38-0.966
		c-0.246-0.26-0.589-0.391-1.031-0.391c-0.456,0-0.807,0.134-1.053,0.401C194.112,128.94,193.993,129.259,193.993,129.635z
		 M209.311,126.488v-0.163c0-0.499-0.047-0.969-0.141-1.411c-0.086-0.448-0.217-0.857-0.391-1.226
		c-0.13-0.26-0.282-0.499-0.456-0.716c-0.167-0.217-0.358-0.402-0.575-0.554c-0.26-0.188-0.55-0.333-0.868-0.434
		c-0.311-0.101-0.659-0.152-1.042-0.152c-0.289,0-0.557,0.029-0.803,0.087c-0.246,0.058-0.47,0.145-0.673,0.26
		c-0.159,0.087-0.308,0.188-0.445,0.304c-0.138,0.108-0.26,0.235-0.369,0.379v-4.557h-1.953v12.5h1.758l0.098-0.966
		c0.094,0.123,0.192,0.235,0.293,0.336c0.109,0.101,0.225,0.195,0.347,0.282c0.232,0.167,0.492,0.293,0.781,0.38
		c0.297,0.086,0.626,0.13,0.988,0.13c0.347,0,0.672-0.047,0.977-0.141c0.304-0.086,0.575-0.209,0.813-0.369
		c0.304-0.203,0.564-0.456,0.781-0.76c0.217-0.304,0.391-0.644,0.521-1.02c0.116-0.311,0.203-0.651,0.26-1.02
		C209.279,127.291,209.311,126.9,209.311,126.488z M207.358,126.325v0.163c0,0.246-0.014,0.484-0.043,0.716
		c-0.021,0.224-0.061,0.434-0.119,0.629c-0.065,0.26-0.159,0.496-0.282,0.706c-0.116,0.209-0.271,0.383-0.466,0.521
		c-0.138,0.094-0.297,0.17-0.478,0.228c-0.181,0.058-0.38,0.087-0.597,0.087c-0.246,0-0.47-0.029-0.673-0.087
		c-0.195-0.065-0.369-0.152-0.521-0.26c-0.137-0.109-0.26-0.228-0.369-0.358c-0.102-0.13-0.188-0.278-0.261-0.445v-3.646
		c0.065-0.137,0.141-0.268,0.228-0.391s0.188-0.231,0.304-0.325c0.159-0.138,0.344-0.243,0.554-0.315
		c0.209-0.072,0.448-0.108,0.716-0.108c0.217,0,0.413,0.025,0.586,0.076c0.174,0.05,0.329,0.123,0.467,0.217
		c0.203,0.145,0.365,0.318,0.488,0.521c0.123,0.202,0.224,0.427,0.304,0.673c0.051,0.209,0.09,0.434,0.119,0.672
		C207.344,125.83,207.358,126.072,207.358,126.325z M215.678,130.969c0.861,0,1.591-0.167,2.192-0.499
		c0.608-0.34,1.056-0.723,1.346-1.15l-1.042-1.009c-0.268,0.347-0.611,0.615-1.031,0.803s-0.868,0.282-1.345,0.282
		c-0.354,0-0.68-0.058-0.977-0.173c-0.297-0.123-0.554-0.293-0.771-0.51c-0.217-0.203-0.387-0.434-0.51-0.694
		c-0.123-0.26-0.217-0.586-0.282-0.977v-0.033h6.109v-0.846c0-0.629-0.087-1.208-0.261-1.736c-0.166-0.535-0.412-0.995-0.738-1.378
		c-0.333-0.376-0.745-0.673-1.237-0.89c-0.485-0.217-1.045-0.326-1.682-0.326c-0.572,0-1.107,0.108-1.606,0.326
		c-0.5,0.217-0.94,0.521-1.324,0.912c-0.376,0.397-0.673,0.879-0.89,1.443c-0.217,0.557-0.325,1.179-0.325,1.866v0.336
		c0,0.601,0.101,1.161,0.304,1.682c0.21,0.513,0.51,0.962,0.9,1.345c0.384,0.383,0.843,0.684,1.378,0.901
		C214.43,130.861,215.027,130.969,215.678,130.969z M215.439,123.417c0.326,0,0.611,0.058,0.857,0.173
		c0.253,0.108,0.459,0.253,0.619,0.434c0.166,0.188,0.296,0.409,0.391,0.662c0.094,0.253,0.141,0.506,0.141,0.759v0.13h-4.145
		c0.058-0.333,0.148-0.633,0.271-0.901c0.13-0.268,0.286-0.495,0.467-0.684c0.188-0.181,0.397-0.322,0.629-0.423
		C214.907,123.468,215.164,123.417,215.439,123.417z M227.199,130.807h1.985v-0.141c-0.108-0.224-0.191-0.496-0.25-0.814
		c-0.058-0.318-0.087-0.676-0.087-1.074v-3.917c0-0.499-0.094-0.937-0.282-1.313c-0.181-0.383-0.434-0.702-0.76-0.955
		c-0.326-0.246-0.712-0.434-1.161-0.564c-0.448-0.13-0.929-0.195-1.443-0.195c-0.579,0-1.092,0.076-1.541,0.228
		c-0.441,0.152-0.813,0.354-1.118,0.607c-0.318,0.246-0.561,0.532-0.727,0.857c-0.159,0.326-0.242,0.666-0.25,1.02h1.953
		c0-0.167,0.033-0.322,0.098-0.467c0.065-0.152,0.163-0.282,0.293-0.391c0.13-0.108,0.293-0.195,0.488-0.26s0.427-0.098,0.695-0.098
		c0.296,0,0.557,0.036,0.781,0.108c0.224,0.072,0.416,0.177,0.575,0.315c0.145,0.13,0.257,0.289,0.336,0.477
		c0.08,0.181,0.12,0.387,0.12,0.619v0.597h-1.421c-0.637,0-1.205,0.062-1.704,0.185c-0.5,0.116-0.922,0.286-1.27,0.51
		c-0.369,0.246-0.651,0.557-0.847,0.934c-0.188,0.369-0.282,0.792-0.282,1.27c0,0.376,0.072,0.727,0.217,1.052
		c0.152,0.318,0.365,0.593,0.64,0.825c0.268,0.231,0.59,0.416,0.966,0.553c0.376,0.13,0.792,0.195,1.248,0.195
		c0.282,0,0.543-0.029,0.781-0.086c0.246-0.051,0.478-0.127,0.695-0.228c0.209-0.087,0.397-0.195,0.564-0.326
		c0.174-0.13,0.329-0.264,0.467-0.401c0.029,0.167,0.058,0.329,0.087,0.488C227.083,130.568,227.133,130.698,227.199,130.807z
		 M224.822,129.407c-0.246,0-0.463-0.029-0.651-0.086c-0.181-0.065-0.333-0.152-0.456-0.261c-0.13-0.108-0.228-0.239-0.293-0.391
		c-0.065-0.159-0.098-0.329-0.098-0.51c0-0.217,0.04-0.413,0.12-0.586c0.08-0.174,0.203-0.322,0.369-0.445
		c0.181-0.145,0.427-0.257,0.738-0.336s0.677-0.12,1.096-0.12h1.259v1.628c-0.072,0.137-0.174,0.271-0.304,0.401
		c-0.13,0.13-0.286,0.25-0.466,0.358c-0.181,0.102-0.38,0.185-0.597,0.25C225.321,129.375,225.083,129.407,224.822,129.407z
		 M231.308,126.336v0.174c0,0.637,0.08,1.226,0.239,1.769c0.167,0.542,0.401,1.013,0.706,1.411c0.296,0.405,0.658,0.72,1.085,0.944
		c0.427,0.225,0.912,0.336,1.454,0.336c0.506,0,0.955-0.094,1.345-0.282c0.391-0.188,0.727-0.456,1.009-0.803l0.087,0.922h1.769
		v-12.5h-1.942v4.514c-0.282-0.311-0.607-0.553-0.977-0.727c-0.362-0.174-0.789-0.261-1.28-0.261c-0.542,0-1.031,0.112-1.465,0.336
		c-0.427,0.217-0.789,0.524-1.085,0.922c-0.304,0.398-0.539,0.872-0.706,1.421C231.388,125.063,231.308,125.67,231.308,126.336z
		 M233.261,126.51v-0.174c0-0.397,0.036-0.77,0.109-1.117c0.08-0.348,0.202-0.655,0.369-0.922c0.159-0.268,0.365-0.478,0.619-0.629
		c0.26-0.152,0.571-0.228,0.933-0.228c0.434,0,0.792,0.098,1.074,0.293c0.289,0.188,0.521,0.445,0.694,0.771v3.787
		c-0.173,0.333-0.405,0.597-0.694,0.792c-0.29,0.188-0.651,0.282-1.085,0.282c-0.362,0-0.669-0.072-0.922-0.217
		c-0.253-0.152-0.463-0.362-0.629-0.629c-0.159-0.253-0.278-0.553-0.358-0.9C233.297,127.27,233.261,126.9,233.261,126.51z
		 M247.332,128.419c0,0.145-0.033,0.275-0.098,0.391s-0.159,0.221-0.282,0.315c-0.152,0.123-0.354,0.22-0.607,0.293
		c-0.253,0.065-0.546,0.098-0.879,0.098c-0.253,0-0.503-0.025-0.749-0.076c-0.238-0.051-0.452-0.134-0.64-0.25
		c-0.195-0.116-0.358-0.268-0.488-0.456c-0.13-0.188-0.203-0.416-0.217-0.684h-1.888c0,0.361,0.087,0.72,0.261,1.074
		c0.173,0.347,0.43,0.658,0.77,0.933c0.326,0.275,0.734,0.499,1.226,0.672c0.492,0.167,1.056,0.25,1.693,0.25
		c0.571,0,1.089-0.065,1.552-0.195c0.47-0.13,0.872-0.315,1.205-0.554c0.333-0.231,0.589-0.51,0.77-0.835
		c0.181-0.326,0.271-0.684,0.271-1.074c0-0.398-0.087-0.742-0.26-1.031c-0.174-0.297-0.416-0.553-0.727-0.771
		c-0.318-0.21-0.702-0.383-1.15-0.521c-0.441-0.145-0.93-0.264-1.465-0.358c-0.383-0.065-0.702-0.137-0.955-0.217
		c-0.253-0.087-0.452-0.177-0.597-0.271c-0.152-0.094-0.257-0.203-0.314-0.325c-0.058-0.123-0.087-0.261-0.087-0.413
		c0-0.145,0.033-0.282,0.098-0.412c0.072-0.138,0.181-0.253,0.326-0.347c0.137-0.109,0.314-0.195,0.532-0.261
		c0.224-0.065,0.484-0.098,0.781-0.098c0.318,0,0.597,0.043,0.835,0.13s0.434,0.199,0.586,0.336c0.13,0.123,0.228,0.26,0.293,0.412
		c0.072,0.145,0.108,0.297,0.108,0.456h1.942c0-0.391-0.087-0.756-0.261-1.096c-0.173-0.347-0.419-0.644-0.738-0.89
		c-0.325-0.253-0.723-0.452-1.193-0.597c-0.463-0.145-0.987-0.217-1.573-0.217c-0.55,0-1.049,0.072-1.498,0.217
		c-0.449,0.137-0.828,0.329-1.139,0.575c-0.326,0.246-0.575,0.532-0.749,0.857c-0.166,0.318-0.25,0.658-0.25,1.02
		c0,0.369,0.083,0.694,0.25,0.977c0.174,0.282,0.409,0.528,0.706,0.738c0.304,0.217,0.666,0.401,1.085,0.553s0.886,0.279,1.4,0.38
		c0.405,0.08,0.741,0.163,1.009,0.25c0.275,0.087,0.496,0.177,0.662,0.271c0.159,0.108,0.271,0.224,0.336,0.347
		C247.296,128.134,247.332,128.268,247.332,128.419z"/>
	<path clip-path="url(#SVGID_2_)" fill="#FFF2CC" d="M346.398,34.004h114.764V75.08H346.398V34.004z"/>
	
		<path clip-path="url(#SVGID_2_)" fill="none" stroke="#000000" stroke-width="2" stroke-linejoin="round" stroke-miterlimit="10" d="
		M346.398,34.004h114.764V75.08H346.398V34.004z"/>
	<path clip-path="url(#SVGID_2_)" d="M382.465,59.301c0,0.376,0.123,0.694,0.369,0.955c0.246,0.253,0.594,0.379,1.042,0.379
		c0.435,0,0.778-0.126,1.03-0.379c0.254-0.261,0.381-0.579,0.381-0.955c0-0.383-0.127-0.705-0.381-0.966
		c-0.246-0.26-0.589-0.391-1.03-0.391c-0.456,0-0.807,0.134-1.053,0.401C382.585,58.606,382.465,58.925,382.465,59.301z
		 M397.653,60.473V48.624h-1.921v4.959h-3.981v-4.959h-1.909v11.849h1.909v-5.284h3.981v5.284H397.653z M408.404,50.24v-1.617
		h-9.234v1.617h3.635v10.232h1.942V50.24H408.404z M412.318,48.624h-2.431v11.849h1.834v-4.025l-0.108-5.089l1.649,5.458h1.02
		l1.823-5.653l-0.108,5.285v4.025h1.833V48.624h-2.43l-1.617,5.067L412.318,48.624z M422.125,58.856V48.624h-1.953v11.849h7.617
		v-1.617H422.125z"/>
	<path clip-path="url(#SVGID_2_)" fill="#FFF2CC" d="M347.105,104.134h114.764v41.076H347.105V104.134z"/>
	
		<path clip-path="url(#SVGID_2_)" fill="none" stroke="#000000" stroke-width="2" stroke-linejoin="round" stroke-miterlimit="10" d="
		M347.105,104.134h114.764v41.076H347.105V104.134z"/>
	<path clip-path="url(#SVGID_2_)" d="M388.174,129.431c0,0.376,0.123,0.694,0.369,0.955c0.245,0.253,0.593,0.38,1.041,0.38
		c0.434,0,0.777-0.126,1.031-0.38c0.253-0.26,0.379-0.579,0.379-0.955c0-0.383-0.126-0.706-0.379-0.966
		c-0.246-0.26-0.59-0.391-1.031-0.391c-0.455,0-0.807,0.134-1.053,0.401C388.293,128.736,388.174,129.055,388.174,129.431z
		 M396.852,121.792h-1.693v8.811h1.791v-6.76c0.036-0.086,0.072-0.163,0.108-0.228c0.043-0.065,0.094-0.12,0.151-0.163
		c0.065-0.072,0.148-0.126,0.25-0.163s0.217-0.054,0.347-0.054c0.123,0,0.231,0.018,0.326,0.054c0.094,0.029,0.177,0.08,0.249,0.152
		c0.065,0.072,0.116,0.17,0.152,0.293c0.036,0.116,0.054,0.26,0.054,0.434v6.435h1.758v-6.532c0-0.058,0-0.101,0-0.13
		c0-0.029,0-0.054,0-0.076c0.022-0.094,0.055-0.177,0.098-0.25c0.044-0.072,0.098-0.138,0.163-0.195
		c0.072-0.058,0.152-0.102,0.239-0.13c0.094-0.036,0.206-0.054,0.336-0.054c0.116,0,0.225,0.018,0.325,0.054
		c0.102,0.029,0.188,0.08,0.261,0.152c0.065,0.072,0.116,0.17,0.152,0.293c0.043,0.123,0.064,0.271,0.064,0.445v6.424h1.791v-6.402
		c0-0.463-0.048-0.857-0.142-1.183c-0.094-0.333-0.228-0.6-0.401-0.803c-0.174-0.195-0.38-0.34-0.618-0.434
		c-0.239-0.101-0.499-0.152-0.781-0.152c-0.218,0-0.416,0.029-0.597,0.087c-0.182,0.051-0.344,0.126-0.488,0.228
		c-0.116,0.073-0.225,0.163-0.326,0.271c-0.094,0.108-0.177,0.228-0.249,0.358c-0.059-0.137-0.127-0.256-0.206-0.358
		c-0.073-0.108-0.156-0.203-0.25-0.282c-0.13-0.101-0.282-0.177-0.456-0.228c-0.173-0.051-0.368-0.076-0.586-0.076
		c-0.412,0-0.767,0.102-1.063,0.304c-0.296,0.203-0.527,0.481-0.694,0.835L396.852,121.792z M406.961,121.792v1.628h2.528v7.324
		c0,0.34-0.047,0.622-0.141,0.846c-0.094,0.231-0.221,0.419-0.38,0.564c-0.152,0.13-0.336,0.224-0.554,0.282
		c-0.217,0.065-0.448,0.098-0.694,0.098c-0.064,0-0.159-0.003-0.282-0.011c-0.115,0-0.238-0.003-0.368-0.011
		c-0.138-0.007-0.269-0.018-0.391-0.033c-0.123-0.014-0.225-0.029-0.305-0.043l-0.108,1.584c0.108,0.021,0.218,0.04,0.326,0.054
		c0.115,0.021,0.228,0.036,0.336,0.043c0.145,0.015,0.293,0.025,0.445,0.032c0.151,0.007,0.304,0.011,0.455,0.011
		c0.572,0,1.078-0.072,1.52-0.217c0.448-0.137,0.828-0.347,1.14-0.629c0.311-0.282,0.546-0.636,0.705-1.063
		c0.166-0.427,0.249-0.93,0.249-1.508v-8.952H406.961z M409.305,119.513c0,0.304,0.098,0.557,0.293,0.759
		c0.203,0.203,0.481,0.304,0.836,0.304c0.361,0,0.641-0.101,0.836-0.304c0.202-0.202,0.304-0.456,0.304-0.759
		c0-0.304-0.102-0.557-0.304-0.76c-0.195-0.209-0.475-0.314-0.836-0.314s-0.641,0.105-0.836,0.314
		C409.402,118.963,409.305,119.216,409.305,119.513z M421.51,128.215c0,0.145-0.033,0.275-0.098,0.391
		c-0.065,0.116-0.159,0.221-0.282,0.314c-0.152,0.123-0.354,0.221-0.607,0.293c-0.254,0.065-0.547,0.098-0.879,0.098
		c-0.254,0-0.503-0.025-0.749-0.076c-0.239-0.051-0.452-0.134-0.641-0.25c-0.195-0.116-0.357-0.268-0.488-0.456
		c-0.13-0.188-0.202-0.416-0.217-0.684h-1.888c0,0.362,0.087,0.72,0.26,1.074c0.174,0.347,0.431,0.659,0.771,0.933
		c0.326,0.275,0.734,0.5,1.227,0.673c0.492,0.167,1.056,0.25,1.692,0.25c0.571,0,1.089-0.065,1.552-0.195
		c0.471-0.13,0.872-0.314,1.204-0.553c0.333-0.231,0.59-0.51,0.771-0.835c0.182-0.326,0.271-0.684,0.271-1.074
		c0-0.398-0.087-0.742-0.261-1.031c-0.173-0.297-0.415-0.554-0.727-0.771c-0.318-0.21-0.702-0.383-1.15-0.521
		c-0.441-0.145-0.93-0.264-1.465-0.358c-0.383-0.065-0.701-0.137-0.955-0.217c-0.253-0.087-0.452-0.177-0.597-0.271
		c-0.151-0.094-0.257-0.203-0.314-0.326c-0.058-0.123-0.087-0.26-0.087-0.412c0-0.145,0.033-0.282,0.098-0.413
		c0.072-0.137,0.181-0.253,0.326-0.347c0.137-0.108,0.314-0.195,0.531-0.26c0.225-0.065,0.484-0.098,0.781-0.098
		c0.318,0,0.597,0.043,0.836,0.13c0.238,0.086,0.434,0.199,0.586,0.336c0.13,0.123,0.228,0.26,0.293,0.412
		c0.072,0.145,0.108,0.297,0.108,0.456h1.942c0-0.391-0.087-0.756-0.261-1.096c-0.174-0.347-0.42-0.644-0.738-0.89
		c-0.325-0.253-0.723-0.452-1.193-0.597c-0.463-0.145-0.987-0.217-1.573-0.217c-0.55,0-1.049,0.072-1.497,0.217
		c-0.449,0.138-0.828,0.33-1.14,0.575c-0.325,0.246-0.575,0.532-0.749,0.857c-0.166,0.318-0.249,0.658-0.249,1.02
		c0,0.369,0.083,0.694,0.249,0.977c0.174,0.282,0.409,0.528,0.706,0.738c0.304,0.217,0.665,0.401,1.085,0.553
		c0.419,0.152,0.886,0.279,1.399,0.38c0.405,0.08,0.741,0.163,1.009,0.25c0.275,0.087,0.496,0.177,0.662,0.271
		c0.159,0.108,0.271,0.224,0.337,0.347C421.474,127.93,421.51,128.063,421.51,128.215z"/>
	<path clip-path="url(#SVGID_2_)" fill="#FFF2CC" d="M345.689,171.429h114.764v41.077H345.689V171.429z"/>
	
		<path clip-path="url(#SVGID_2_)" fill="none" stroke="#000000" stroke-width="2" stroke-linejoin="round" stroke-miterlimit="10" d="
		M345.689,171.429h114.764v41.077H345.689V171.429z"/>
	<path clip-path="url(#SVGID_2_)" d="M386.758,196.726c0,0.376,0.122,0.694,0.368,0.955c0.246,0.253,0.593,0.379,1.042,0.379
		c0.434,0,0.777-0.126,1.031-0.379c0.252-0.261,0.379-0.579,0.379-0.955c0-0.383-0.127-0.705-0.379-0.966
		c-0.246-0.26-0.59-0.391-1.031-0.391c-0.456,0-0.807,0.134-1.053,0.402C386.877,196.032,386.758,196.35,386.758,196.726z
		 M399.96,197.898h1.985v-0.141c-0.108-0.224-0.191-0.496-0.249-0.813c-0.059-0.318-0.087-0.677-0.087-1.074v-3.917
		c0-0.499-0.095-0.937-0.282-1.313c-0.181-0.383-0.435-0.702-0.76-0.955c-0.325-0.246-0.713-0.434-1.161-0.564
		c-0.448-0.13-0.93-0.195-1.443-0.195c-0.578,0-1.092,0.076-1.54,0.228c-0.442,0.152-0.814,0.354-1.118,0.607
		c-0.318,0.246-0.561,0.532-0.727,0.857c-0.16,0.326-0.242,0.666-0.25,1.02h1.953c0-0.167,0.032-0.322,0.098-0.467
		c0.065-0.152,0.163-0.282,0.293-0.391c0.13-0.108,0.293-0.195,0.488-0.26s0.427-0.098,0.694-0.098c0.297,0,0.558,0.036,0.781,0.108
		c0.225,0.072,0.416,0.177,0.575,0.315c0.145,0.13,0.257,0.289,0.337,0.477c0.079,0.181,0.119,0.387,0.119,0.619v0.597h-1.422
		c-0.637,0-1.204,0.062-1.703,0.185c-0.499,0.116-0.923,0.286-1.27,0.51c-0.369,0.246-0.651,0.557-0.847,0.933
		c-0.188,0.369-0.282,0.792-0.282,1.27c0,0.376,0.073,0.727,0.218,1.052c0.151,0.318,0.365,0.593,0.64,0.825
		c0.268,0.231,0.589,0.416,0.966,0.553c0.376,0.13,0.792,0.195,1.248,0.195c0.282,0,0.542-0.029,0.781-0.086
		c0.246-0.051,0.478-0.127,0.694-0.228c0.21-0.087,0.397-0.195,0.564-0.326c0.173-0.13,0.329-0.264,0.466-0.401
		c0.029,0.167,0.059,0.329,0.087,0.488C399.844,197.659,399.895,197.79,399.96,197.898z M397.583,196.498
		c-0.245,0-0.463-0.029-0.65-0.086c-0.181-0.065-0.333-0.152-0.456-0.261c-0.13-0.108-0.228-0.239-0.293-0.391
		c-0.065-0.159-0.098-0.329-0.098-0.51c0-0.217,0.04-0.413,0.119-0.586c0.08-0.174,0.203-0.322,0.369-0.445
		c0.181-0.145,0.427-0.257,0.738-0.336c0.311-0.08,0.676-0.12,1.096-0.12h1.259v1.628c-0.072,0.137-0.174,0.271-0.304,0.401
		c-0.131,0.13-0.286,0.25-0.467,0.358c-0.181,0.102-0.38,0.185-0.597,0.25C398.083,196.466,397.844,196.498,397.583,196.498z
		 M410.092,195.511c0,0.145-0.033,0.275-0.098,0.391c-0.065,0.116-0.159,0.221-0.282,0.315c-0.152,0.123-0.354,0.22-0.607,0.293
		c-0.254,0.065-0.547,0.098-0.879,0.098c-0.254,0-0.503-0.025-0.749-0.076c-0.238-0.051-0.452-0.134-0.641-0.25
		c-0.195-0.116-0.357-0.268-0.488-0.456c-0.13-0.188-0.202-0.416-0.217-0.684h-1.888c0,0.361,0.087,0.72,0.261,1.074
		c0.173,0.347,0.43,0.658,0.77,0.933c0.326,0.275,0.734,0.499,1.227,0.673c0.492,0.166,1.056,0.25,1.692,0.25
		c0.571,0,1.089-0.065,1.552-0.195c0.471-0.13,0.872-0.315,1.205-0.554c0.332-0.231,0.589-0.51,0.77-0.835
		c0.182-0.325,0.271-0.684,0.271-1.074c0-0.398-0.087-0.741-0.26-1.031c-0.174-0.296-0.416-0.553-0.728-0.771
		c-0.318-0.209-0.701-0.383-1.15-0.521c-0.441-0.145-0.93-0.264-1.465-0.358c-0.383-0.065-0.701-0.137-0.954-0.217
		c-0.254-0.087-0.452-0.177-0.598-0.271c-0.151-0.094-0.257-0.203-0.314-0.325c-0.058-0.123-0.087-0.261-0.087-0.413
		c0-0.145,0.033-0.282,0.098-0.412c0.072-0.138,0.181-0.253,0.326-0.347c0.137-0.109,0.314-0.195,0.531-0.261
		c0.225-0.065,0.484-0.098,0.781-0.098c0.318,0,0.597,0.043,0.836,0.13c0.238,0.087,0.434,0.199,0.586,0.336
		c0.13,0.123,0.228,0.26,0.293,0.412c0.072,0.145,0.108,0.297,0.108,0.456h1.942c0-0.391-0.087-0.756-0.261-1.096
		c-0.174-0.347-0.42-0.644-0.738-0.89c-0.325-0.253-0.723-0.452-1.193-0.597c-0.463-0.145-0.987-0.217-1.573-0.217
		c-0.55,0-1.049,0.072-1.497,0.217c-0.449,0.137-0.828,0.329-1.14,0.575c-0.325,0.246-0.575,0.531-0.749,0.857
		c-0.166,0.318-0.249,0.658-0.249,1.02c0,0.369,0.083,0.694,0.249,0.977c0.174,0.282,0.409,0.528,0.706,0.738
		c0.304,0.217,0.665,0.401,1.085,0.553c0.419,0.152,0.886,0.279,1.399,0.38c0.405,0.08,0.741,0.163,1.009,0.25
		c0.275,0.087,0.496,0.177,0.662,0.271c0.159,0.108,0.271,0.224,0.337,0.347C410.056,195.225,410.092,195.359,410.092,195.511z
		 M416.394,191.095v1.53h1.16c0.341,0,0.647,0.04,0.923,0.12c0.274,0.079,0.51,0.195,0.705,0.347
		c0.195,0.166,0.344,0.373,0.445,0.618c0.101,0.239,0.151,0.532,0.151,0.879c0,0.304-0.047,0.575-0.141,0.814
		c-0.087,0.231-0.214,0.427-0.38,0.586c-0.174,0.167-0.387,0.293-0.641,0.38c-0.253,0.08-0.535,0.119-0.846,0.119
		c-0.297,0-0.564-0.043-0.804-0.13c-0.238-0.087-0.444-0.21-0.618-0.369c-0.181-0.152-0.318-0.336-0.412-0.553
		c-0.094-0.217-0.142-0.456-0.142-0.716h-1.953c0,0.55,0.109,1.034,0.326,1.454c0.217,0.412,0.503,0.759,0.857,1.042
		c0.361,0.282,0.777,0.496,1.247,0.64c0.471,0.138,0.963,0.206,1.476,0.206c0.564,0,1.089-0.076,1.574-0.228
		c0.484-0.159,0.903-0.387,1.258-0.684c0.354-0.297,0.634-0.658,0.836-1.085c0.202-0.434,0.304-0.926,0.304-1.476
		c0-0.304-0.036-0.593-0.108-0.868c-0.065-0.282-0.177-0.546-0.336-0.792c-0.159-0.239-0.362-0.452-0.608-0.64
		c-0.246-0.195-0.546-0.351-0.9-0.466c0.304-0.138,0.564-0.304,0.781-0.5c0.225-0.195,0.409-0.405,0.554-0.629
		c0.151-0.225,0.264-0.459,0.336-0.706s0.108-0.492,0.108-0.738c0-0.55-0.094-1.035-0.282-1.454
		c-0.181-0.419-0.44-0.771-0.781-1.052c-0.325-0.282-0.723-0.496-1.193-0.64c-0.47-0.145-0.983-0.217-1.541-0.217
		c-0.55,0-1.056,0.083-1.519,0.25c-0.456,0.159-0.85,0.383-1.183,0.673c-0.34,0.289-0.604,0.633-0.792,1.031
		c-0.188,0.398-0.282,0.832-0.282,1.302h1.942c0-0.253,0.047-0.481,0.141-0.684c0.094-0.21,0.225-0.391,0.391-0.542
		c0.166-0.145,0.361-0.257,0.586-0.336s0.471-0.12,0.738-0.12c0.296,0,0.561,0.043,0.792,0.13c0.231,0.08,0.423,0.191,0.575,0.336
		c0.151,0.159,0.268,0.351,0.347,0.575c0.08,0.217,0.119,0.466,0.119,0.749c0,0.26-0.043,0.506-0.13,0.738
		c-0.087,0.224-0.206,0.413-0.358,0.564c-0.173,0.173-0.391,0.307-0.65,0.401c-0.261,0.094-0.564,0.141-0.912,0.141H416.394z"/>
	<path clip-path="url(#SVGID_2_)" fill="#FFF2CC" d="M494.45,172.137h114.764v41.076H494.45V172.137z"/>
	
		<path clip-path="url(#SVGID_2_)" fill="none" stroke="#000000" stroke-width="2" stroke-linejoin="round" stroke-miterlimit="10" d="
		M494.45,172.137h114.764v41.076H494.45V172.137z"/>
	<path clip-path="url(#SVGID_2_)" d="M543.796,195.882l0.803,2.724h2.019l-3.787-11.849h-1.736l-3.852,11.849h2.028l0.804-2.724
		H543.796z M540.573,194.2l1.389-4.688l1.356,4.688H540.573z M548.339,186.756v1.617h2.475v8.615h-2.475v1.617h6.978v-1.617h-2.528
		v-8.615h2.528v-1.617H548.339z M562.03,194.004l2.268,4.601h2.095v-0.109l-2.539-4.958c0.325-0.145,0.622-0.315,0.89-0.51
		c0.268-0.203,0.495-0.438,0.684-0.705c0.188-0.268,0.336-0.564,0.444-0.89c0.108-0.333,0.163-0.705,0.163-1.117
		c0-0.586-0.105-1.1-0.314-1.541c-0.203-0.448-0.488-0.821-0.857-1.118c-0.376-0.289-0.825-0.51-1.346-0.662
		c-0.514-0.152-1.074-0.231-1.682-0.239h-3.766v11.849h1.953v-4.601H562.03z M560.022,192.409v-4.058h1.812
		c0.333,0.007,0.633,0.054,0.9,0.141c0.275,0.08,0.507,0.199,0.694,0.358c0.21,0.173,0.365,0.391,0.467,0.651
		c0.108,0.26,0.163,0.561,0.163,0.9c0,0.304-0.051,0.575-0.152,0.814c-0.094,0.239-0.228,0.438-0.401,0.597
		c-0.195,0.195-0.434,0.344-0.716,0.445c-0.275,0.094-0.586,0.145-0.934,0.152H560.022z"/>
	<path clip-path="url(#SVGID_2_)" fill="#FFF2CC" d="M638.251,171.428h114.764v41.076H638.251V171.428z"/>
	
		<path clip-path="url(#SVGID_2_)" fill="none" stroke="#000000" stroke-width="2" stroke-linejoin="round" stroke-miterlimit="10" d="
		M638.251,171.428h114.764v41.076H638.251V171.428z"/>
	<path clip-path="url(#SVGID_2_)" d="M658.286,194.655l0.619,2.116h1.573l-2.94-9.212h-1.356l-2.995,9.212h1.584l0.63-2.116H658.286
		z M655.78,193.353l1.074-3.646l1.063,3.646H655.78z M661.623,196.771h1.52v-4.883c0.064-0.116,0.141-0.221,0.228-0.314
		c0.094-0.102,0.191-0.185,0.293-0.25c0.13-0.087,0.275-0.156,0.435-0.206c0.158-0.051,0.332-0.076,0.521-0.076
		c0.217,0,0.412,0.025,0.586,0.076c0.174,0.05,0.321,0.134,0.444,0.25c0.123,0.108,0.218,0.26,0.282,0.456
		c0.065,0.188,0.098,0.423,0.098,0.705v4.243h1.509v-4.275c0-0.478-0.059-0.886-0.174-1.226c-0.116-0.34-0.275-0.619-0.478-0.835
		c-0.21-0.217-0.459-0.376-0.749-0.478c-0.289-0.102-0.611-0.152-0.965-0.152c-0.261,0-0.514,0.04-0.76,0.119
		c-0.239,0.072-0.46,0.177-0.662,0.315c-0.123,0.086-0.242,0.188-0.358,0.304c-0.108,0.108-0.21,0.228-0.304,0.358l-0.098-0.977
		h-1.367V196.771z M674.129,189.805c-0.471,0-0.9,0.108-1.291,0.325c-0.391,0.217-0.724,0.517-0.998,0.901l-0.012-0.152
		l-0.064-0.955h-1.411v6.847h1.509v-4.221c0.079-0.203,0.177-0.383,0.293-0.542c0.123-0.159,0.268-0.29,0.434-0.391
		c0.159-0.102,0.34-0.177,0.543-0.228c0.202-0.051,0.43-0.076,0.684-0.076c0.224,0,0.448,0.014,0.673,0.043
		c0.224,0.022,0.452,0.058,0.684,0.109l0.217-1.498c-0.13-0.043-0.312-0.08-0.543-0.108
		C674.613,189.823,674.375,189.805,674.129,189.805z M676.901,193.288v0.13c0,0.499,0.068,0.962,0.206,1.389
		c0.145,0.419,0.354,0.785,0.63,1.096c0.274,0.311,0.607,0.557,0.998,0.738c0.397,0.173,0.85,0.26,1.356,0.26
		c0.491,0,0.933-0.087,1.323-0.26c0.398-0.181,0.734-0.427,1.01-0.738c0.268-0.312,0.474-0.677,0.618-1.096
		c0.145-0.427,0.217-0.89,0.217-1.389v-0.13c0-0.499-0.072-0.958-0.217-1.378c-0.145-0.427-0.351-0.796-0.618-1.107
		c-0.275-0.318-0.611-0.564-1.01-0.738c-0.391-0.174-0.839-0.26-1.346-0.26c-0.499,0-0.943,0.086-1.334,0.26
		s-0.724,0.419-0.998,0.738c-0.275,0.311-0.485,0.68-0.63,1.107C676.97,192.33,676.901,192.789,676.901,193.288z M678.409,193.418
		v-0.13c0-0.304,0.033-0.59,0.098-0.857c0.065-0.275,0.167-0.517,0.305-0.727c0.137-0.21,0.311-0.373,0.521-0.488
		c0.21-0.123,0.456-0.185,0.737-0.185c0.297,0,0.547,0.062,0.749,0.185c0.21,0.115,0.387,0.278,0.532,0.488
		c0.13,0.209,0.228,0.452,0.293,0.727c0.064,0.268,0.098,0.554,0.098,0.857v0.13c0,0.311-0.033,0.604-0.098,0.879
		c-0.065,0.268-0.163,0.506-0.293,0.716c-0.138,0.203-0.312,0.365-0.521,0.488s-0.455,0.185-0.737,0.185
		c-0.297,0-0.55-0.062-0.76-0.185s-0.384-0.286-0.521-0.488c-0.138-0.209-0.239-0.448-0.305-0.716
		C678.442,194.022,678.409,193.729,678.409,193.418z M685.295,189.924v1.259h2.115v4.34h-2.115v1.248h5.642v-1.248h-2.007v-5.599
		H685.295z M687.27,188.156c0,0.159,0.036,0.3,0.108,0.423c0.079,0.115,0.195,0.199,0.347,0.25c0.152,0.043,0.29,0.054,0.413,0.032
		c0.123-0.029,0.228-0.083,0.314-0.163c0.174-0.043,0.308-0.134,0.401-0.271c0.094-0.137,0.127-0.3,0.098-0.488
		c-0.021-0.181-0.104-0.329-0.25-0.445c-0.137-0.116-0.321-0.173-0.553-0.173c-0.131,0-0.25,0.021-0.358,0.065
		c-0.108,0.036-0.202,0.09-0.282,0.163c-0.079,0.072-0.141,0.163-0.185,0.271C687.287,187.92,687.27,188.033,687.27,188.156z
		 M692.526,193.299v0.13c0,0.492,0.062,0.951,0.185,1.378c0.131,0.427,0.312,0.792,0.543,1.096c0.231,0.311,0.514,0.557,0.846,0.738
		c0.333,0.173,0.709,0.26,1.129,0.26c0.391,0,0.738-0.072,1.042-0.217c0.304-0.152,0.567-0.362,0.792-0.629l0.064,0.716h1.379
		v-9.722h-1.52v3.516c-0.217-0.246-0.47-0.434-0.76-0.564c-0.282-0.13-0.611-0.195-0.987-0.195c-0.419,0-0.799,0.086-1.14,0.26
		c-0.332,0.167-0.614,0.401-0.846,0.705c-0.239,0.311-0.42,0.68-0.543,1.107S692.526,192.778,692.526,193.299z M694.035,193.429
		v-0.13c0-0.311,0.028-0.601,0.087-0.868c0.058-0.275,0.151-0.514,0.282-0.716c0.123-0.21,0.285-0.373,0.488-0.488
		c0.202-0.123,0.444-0.185,0.727-0.185c0.333,0,0.611,0.076,0.836,0.228c0.224,0.152,0.401,0.354,0.531,0.607v2.94
		c-0.13,0.253-0.308,0.456-0.531,0.608c-0.225,0.152-0.507,0.228-0.847,0.228c-0.282,0-0.524-0.058-0.728-0.173
		c-0.195-0.116-0.354-0.279-0.477-0.488c-0.131-0.195-0.225-0.427-0.282-0.694C694.063,194.022,694.035,193.733,694.035,193.429z
		 M710.159,195.86c0,0.289,0.095,0.535,0.282,0.738c0.195,0.202,0.467,0.304,0.814,0.304c0.34,0,0.607-0.098,0.803-0.293
		c0.195-0.203,0.293-0.452,0.293-0.749c0-0.297-0.098-0.546-0.293-0.749c-0.188-0.203-0.456-0.304-0.803-0.304
		c-0.355,0-0.626,0.105-0.814,0.315C710.254,195.324,710.159,195.57,710.159,195.86z M720.419,196.771h1.541v-0.108
		c-0.08-0.173-0.142-0.383-0.185-0.629c-0.044-0.253-0.065-0.532-0.065-0.835v-3.049c0-0.384-0.072-0.724-0.217-1.02
		c-0.145-0.297-0.344-0.542-0.597-0.738s-0.554-0.34-0.9-0.434c-0.348-0.102-0.724-0.152-1.129-0.152
		c-0.441,0-0.839,0.058-1.193,0.173c-0.348,0.116-0.637,0.271-0.868,0.467c-0.246,0.195-0.434,0.419-0.564,0.673
		c-0.123,0.253-0.188,0.517-0.195,0.792h1.52c0-0.13,0.025-0.253,0.076-0.369c0.05-0.116,0.126-0.217,0.228-0.304
		s0.228-0.156,0.38-0.206c0.151-0.051,0.333-0.076,0.542-0.076c0.225,0,0.424,0.029,0.597,0.087c0.182,0.058,0.333,0.141,0.456,0.25
		c0.108,0.101,0.191,0.224,0.25,0.369c0.064,0.145,0.098,0.304,0.098,0.477v0.467h-1.097c-0.491,0-0.933,0.047-1.323,0.141
		c-0.391,0.087-0.72,0.221-0.987,0.401c-0.29,0.188-0.51,0.427-0.662,0.716c-0.145,0.289-0.217,0.622-0.217,0.998
		c0,0.29,0.058,0.561,0.174,0.814c0.115,0.253,0.278,0.466,0.488,0.64c0.209,0.181,0.459,0.326,0.748,0.434
		c0.297,0.101,0.622,0.152,0.977,0.152c0.217,0,0.42-0.021,0.607-0.065c0.195-0.043,0.373-0.102,0.532-0.174
		c0.166-0.072,0.314-0.159,0.444-0.26c0.138-0.102,0.257-0.206,0.358-0.315c0.021,0.13,0.047,0.257,0.076,0.38
		C720.34,196.583,720.376,196.685,720.419,196.771z M718.585,195.686c-0.195,0-0.365-0.025-0.51-0.076
		c-0.145-0.051-0.264-0.116-0.358-0.195c-0.101-0.087-0.177-0.188-0.228-0.304c-0.051-0.123-0.076-0.253-0.076-0.391
		c0-0.173,0.029-0.325,0.087-0.456c0.065-0.138,0.163-0.257,0.293-0.358c0.145-0.109,0.337-0.192,0.575-0.25
		c0.238-0.065,0.521-0.098,0.847-0.098h0.977v1.258c-0.051,0.116-0.127,0.224-0.229,0.326c-0.101,0.101-0.224,0.191-0.368,0.271
		c-0.138,0.079-0.293,0.145-0.467,0.195C718.961,195.661,718.78,195.686,718.585,195.686z M723.843,199.408h1.508v-3.255
		c0.08,0.086,0.167,0.17,0.261,0.25c0.094,0.072,0.191,0.137,0.293,0.195c0.166,0.101,0.351,0.177,0.553,0.228
		c0.21,0.051,0.438,0.076,0.684,0.076c0.428,0,0.807-0.087,1.14-0.26c0.333-0.181,0.615-0.427,0.847-0.738
		c0.224-0.312,0.395-0.68,0.51-1.107c0.116-0.427,0.174-0.886,0.174-1.378v-0.13c0-0.514-0.058-0.984-0.174-1.411
		c-0.115-0.434-0.286-0.803-0.51-1.107c-0.231-0.311-0.514-0.55-0.847-0.716c-0.333-0.167-0.72-0.25-1.161-0.25
		c-0.224,0-0.438,0.025-0.64,0.076c-0.195,0.043-0.373,0.108-0.532,0.195c-0.13,0.072-0.249,0.156-0.357,0.25
		c-0.109,0.087-0.21,0.188-0.305,0.304l-0.054-0.706h-1.389V199.408z M728.302,193.288v0.13c0,0.304-0.028,0.593-0.087,0.868
		c-0.058,0.268-0.151,0.506-0.281,0.716c-0.131,0.21-0.297,0.376-0.5,0.499c-0.195,0.116-0.434,0.174-0.716,0.174
		c-0.174,0-0.333-0.018-0.478-0.054c-0.145-0.043-0.271-0.098-0.38-0.163c-0.115-0.072-0.217-0.155-0.304-0.25
		c-0.079-0.101-0.148-0.209-0.206-0.325v-3.049c0.065-0.123,0.142-0.235,0.228-0.336c0.095-0.101,0.203-0.188,0.326-0.26
		c0.108-0.058,0.228-0.105,0.357-0.141c0.138-0.036,0.286-0.054,0.445-0.054c0.282,0,0.524,0.062,0.727,0.185
		c0.203,0.116,0.369,0.275,0.5,0.478c0.123,0.202,0.213,0.441,0.271,0.716C728.27,192.688,728.302,192.977,728.302,193.288z
		 M733.95,193.787l2.181,2.984h1.877l-3.049-3.993l2.658-2.854h-1.822l-2.04,2.148l-0.63,0.706v-5.729h-1.508v9.722h1.508v-2.203
		L733.95,193.787z"/>
	<path clip-path="url(#SVGID_2_)" fill="#FFF2CC" d="M638.251,231.641h114.764v41.076H638.251V231.641z"/>
	
		<path clip-path="url(#SVGID_2_)" fill="none" stroke="#000000" stroke-width="2" stroke-linejoin="round" stroke-miterlimit="10" d="
		M638.251,231.641h114.764v41.076H638.251V231.641z"/>
	<path clip-path="url(#SVGID_2_)" d="M665.857,250.137v1.259h2.116v4.341h-2.116v1.248h5.643v-1.248h-2.007v-5.6H665.857z
		 M667.833,248.368c0,0.159,0.036,0.3,0.108,0.423c0.079,0.116,0.195,0.199,0.347,0.25c0.152,0.043,0.29,0.055,0.413,0.032
		c0.122-0.028,0.228-0.083,0.314-0.163c0.174-0.043,0.308-0.133,0.401-0.271s0.126-0.3,0.098-0.488
		c-0.021-0.181-0.105-0.329-0.25-0.445c-0.137-0.115-0.321-0.173-0.553-0.173c-0.131,0-0.25,0.021-0.358,0.064
		c-0.108,0.036-0.202,0.091-0.282,0.163c-0.079,0.072-0.141,0.163-0.185,0.271C667.851,248.133,667.833,248.245,667.833,248.368z
		 M679.492,252.99v-1.215c0-0.383-0.033-0.752-0.098-1.107c-0.065-0.354-0.167-0.69-0.304-1.009
		c-0.123-0.289-0.275-0.554-0.456-0.792c-0.181-0.246-0.395-0.459-0.641-0.641c-0.246-0.188-0.524-0.332-0.835-0.434
		c-0.304-0.102-0.641-0.152-1.01-0.152c-0.361,0-0.694,0.051-0.998,0.152c-0.296,0.102-0.564,0.242-0.803,0.424
		c-0.246,0.188-0.459,0.408-0.641,0.661c-0.173,0.246-0.321,0.518-0.444,0.813c-0.123,0.318-0.217,0.651-0.282,0.999
		c-0.065,0.347-0.098,0.709-0.098,1.085v1.215c0,0.362,0.029,0.713,0.087,1.053s0.148,0.658,0.271,0.955
		c0.123,0.311,0.274,0.597,0.455,0.857c0.182,0.26,0.395,0.484,0.641,0.672c0.238,0.182,0.51,0.326,0.813,0.435
		c0.312,0.102,0.651,0.151,1.021,0.151c0.354,0,0.68-0.047,0.977-0.141c0.296-0.102,0.567-0.234,0.813-0.401
		c0.253-0.188,0.474-0.412,0.662-0.673c0.195-0.26,0.357-0.543,0.488-0.846c0.123-0.312,0.217-0.641,0.282-0.988
		C679.459,253.718,679.492,253.359,679.492,252.99z M677.962,251.765v1.226c0,0.232-0.015,0.46-0.043,0.684
		c-0.022,0.217-0.059,0.428-0.109,0.63c-0.058,0.231-0.137,0.444-0.238,0.64c-0.094,0.188-0.217,0.352-0.369,0.488
		c-0.123,0.123-0.274,0.221-0.455,0.293c-0.174,0.072-0.366,0.109-0.575,0.109c-0.225,0-0.424-0.037-0.597-0.109
		c-0.167-0.079-0.318-0.181-0.456-0.304c-0.13-0.138-0.242-0.304-0.337-0.499c-0.094-0.195-0.17-0.404-0.228-0.629
		c-0.051-0.203-0.087-0.412-0.108-0.63c-0.021-0.224-0.032-0.448-0.032-0.673v-1.226c0-0.225,0.011-0.448,0.032-0.673
		c0.029-0.231,0.068-0.449,0.119-0.651c0.051-0.231,0.127-0.444,0.229-0.64c0.101-0.195,0.228-0.361,0.379-0.5
		c0.116-0.115,0.257-0.205,0.424-0.271c0.166-0.065,0.351-0.098,0.553-0.098c0.218,0,0.409,0.036,0.575,0.108
		c0.174,0.064,0.326,0.155,0.456,0.271c0.145,0.137,0.268,0.304,0.369,0.499c0.108,0.188,0.195,0.397,0.26,0.629
		c0.051,0.202,0.087,0.416,0.109,0.641C677.947,251.305,677.962,251.533,677.962,251.765z M685.823,254.607
		c0,0.203-0.043,0.383-0.13,0.543c-0.087,0.151-0.199,0.281-0.337,0.391c-0.151,0.107-0.329,0.191-0.531,0.249
		c-0.195,0.051-0.409,0.076-0.641,0.076c-0.274,0-0.527-0.032-0.759-0.098s-0.431-0.17-0.598-0.315
		c-0.173-0.13-0.311-0.3-0.412-0.51c-0.094-0.209-0.151-0.455-0.174-0.737h-1.519c0,0.44,0.087,0.835,0.261,1.183
		c0.181,0.34,0.419,0.637,0.716,0.89c0.325,0.268,0.705,0.474,1.14,0.618c0.441,0.138,0.89,0.207,1.345,0.207
		c0.427,0,0.832-0.055,1.216-0.163c0.383-0.108,0.72-0.268,1.009-0.478c0.29-0.21,0.518-0.471,0.684-0.781
		c0.174-0.311,0.261-0.673,0.261-1.085c0-0.441-0.098-0.832-0.293-1.172c-0.195-0.341-0.456-0.634-0.781-0.879
		c-0.261-0.195-0.546-0.358-0.857-0.488c-0.311-0.138-0.629-0.253-0.955-0.348c-0.26-0.079-0.506-0.163-0.737-0.249
		c-0.231-0.087-0.438-0.191-0.619-0.314c-0.181-0.116-0.325-0.254-0.434-0.413c-0.102-0.159-0.155-0.343-0.163-0.554
		c0-0.195,0.04-0.372,0.119-0.531c0.087-0.159,0.199-0.297,0.337-0.412c0.145-0.108,0.314-0.191,0.51-0.25
		c0.195-0.064,0.412-0.098,0.651-0.098c0.26,0,0.492,0.04,0.694,0.119c0.21,0.072,0.387,0.178,0.531,0.315
		c0.138,0.138,0.243,0.304,0.315,0.499c0.079,0.188,0.13,0.398,0.151,0.629h1.509c0-0.412-0.084-0.788-0.25-1.128
		c-0.166-0.348-0.395-0.647-0.684-0.901c-0.282-0.245-0.618-0.438-1.009-0.574c-0.384-0.138-0.8-0.207-1.248-0.207
		c-0.42,0-0.821,0.062-1.204,0.186c-0.384,0.115-0.717,0.281-0.999,0.498c-0.289,0.225-0.517,0.496-0.684,0.814
		c-0.166,0.311-0.249,0.662-0.249,1.053c0,0.361,0.072,0.688,0.217,0.977s0.344,0.546,0.597,0.77
		c0.261,0.225,0.571,0.428,0.934,0.608c0.368,0.181,0.771,0.333,1.204,0.456c0.282,0.079,0.535,0.17,0.76,0.271
		c0.231,0.095,0.434,0.202,0.607,0.325c0.159,0.131,0.282,0.279,0.369,0.445S685.823,254.397,685.823,254.607z M698.497,256.072
		c0,0.289,0.095,0.535,0.282,0.738c0.195,0.202,0.467,0.303,0.814,0.303c0.34,0,0.607-0.098,0.803-0.293
		c0.195-0.202,0.293-0.451,0.293-0.748s-0.098-0.547-0.293-0.749c-0.188-0.202-0.456-0.304-0.803-0.304
		c-0.354,0-0.626,0.105-0.814,0.314C698.592,255.537,698.497,255.783,698.497,256.072z M704.731,250.137v1.259h2.116v4.341h-2.116
		v1.248h5.643v-1.248h-2.008v-5.6H704.731z M706.706,248.368c0,0.159,0.036,0.3,0.108,0.423c0.08,0.116,0.195,0.199,0.348,0.25
		c0.151,0.043,0.289,0.055,0.412,0.032c0.123-0.028,0.228-0.083,0.314-0.163c0.174-0.043,0.308-0.133,0.401-0.271
		c0.095-0.138,0.127-0.3,0.098-0.488c-0.021-0.181-0.104-0.329-0.249-0.445c-0.138-0.115-0.322-0.173-0.554-0.173
		c-0.13,0-0.249,0.021-0.358,0.064c-0.108,0.036-0.202,0.091-0.281,0.163c-0.08,0.072-0.142,0.163-0.185,0.271
		C706.725,248.133,706.706,248.245,706.706,248.368z M712.181,259.621h1.508v-3.256c0.08,0.087,0.167,0.17,0.261,0.25
		c0.094,0.072,0.191,0.137,0.293,0.195c0.166,0.101,0.351,0.177,0.554,0.228c0.209,0.05,0.438,0.075,0.684,0.075
		c0.427,0,0.806-0.086,1.139-0.26c0.333-0.181,0.615-0.427,0.847-0.738c0.225-0.311,0.395-0.68,0.51-1.106
		c0.116-0.427,0.174-0.886,0.174-1.378V253.5c0-0.514-0.058-0.983-0.174-1.41c-0.115-0.434-0.285-0.803-0.51-1.106
		c-0.231-0.312-0.514-0.55-0.847-0.716c-0.333-0.167-0.72-0.25-1.161-0.25c-0.224,0-0.438,0.025-0.64,0.076
		c-0.195,0.043-0.373,0.108-0.532,0.195c-0.13,0.072-0.249,0.155-0.357,0.249c-0.108,0.087-0.21,0.188-0.304,0.304l-0.055-0.705
		h-1.389V259.621z M716.64,253.5v0.131c0,0.304-0.028,0.594-0.086,0.868c-0.059,0.268-0.152,0.507-0.282,0.716
		c-0.131,0.21-0.297,0.377-0.499,0.499c-0.195,0.116-0.435,0.174-0.717,0.174c-0.174,0-0.333-0.019-0.478-0.054
		c-0.145-0.044-0.271-0.098-0.38-0.163c-0.115-0.072-0.217-0.155-0.304-0.25c-0.079-0.101-0.148-0.21-0.206-0.325v-3.049
		c0.065-0.123,0.142-0.235,0.229-0.337c0.094-0.101,0.202-0.188,0.325-0.261c0.108-0.057,0.228-0.104,0.358-0.141
		c0.137-0.036,0.285-0.055,0.444-0.055c0.282,0,0.524,0.062,0.728,0.186c0.202,0.115,0.368,0.274,0.499,0.477
		c0.123,0.203,0.213,0.441,0.271,0.717C716.607,252.9,716.64,253.189,716.64,253.5z M724.307,256.984h1.54v-0.109
		c-0.079-0.174-0.141-0.383-0.185-0.629c-0.043-0.254-0.064-0.532-0.064-0.836v-3.049c0-0.383-0.072-0.724-0.217-1.02
		c-0.145-0.297-0.344-0.543-0.598-0.738c-0.253-0.195-0.553-0.34-0.9-0.434c-0.347-0.102-0.723-0.152-1.128-0.152
		c-0.441,0-0.839,0.058-1.194,0.174c-0.347,0.115-0.636,0.271-0.867,0.467c-0.246,0.195-0.435,0.419-0.564,0.672
		c-0.123,0.254-0.188,0.518-0.195,0.793h1.519c0-0.131,0.025-0.254,0.076-0.369c0.051-0.116,0.127-0.217,0.228-0.305
		c0.102-0.086,0.229-0.154,0.38-0.205c0.152-0.051,0.333-0.076,0.543-0.076c0.225,0,0.423,0.029,0.597,0.086
		c0.181,0.059,0.333,0.142,0.456,0.25c0.108,0.102,0.191,0.225,0.249,0.369c0.065,0.145,0.098,0.304,0.098,0.478v0.466h-1.096
		c-0.492,0-0.934,0.048-1.324,0.142c-0.391,0.087-0.719,0.221-0.987,0.401c-0.289,0.188-0.51,0.427-0.661,0.717
		c-0.145,0.289-0.218,0.621-0.218,0.998c0,0.289,0.059,0.561,0.174,0.813c0.116,0.253,0.278,0.467,0.488,0.64
		c0.21,0.182,0.46,0.326,0.749,0.435c0.297,0.102,0.622,0.151,0.977,0.151c0.217,0,0.42-0.021,0.607-0.064
		c0.195-0.043,0.373-0.102,0.531-0.174c0.167-0.072,0.315-0.159,0.445-0.26c0.138-0.102,0.257-0.207,0.358-0.314
		c0.021,0.129,0.047,0.256,0.075,0.379C724.227,256.795,724.263,256.896,724.307,256.984z M722.473,255.898
		c-0.195,0-0.365-0.025-0.51-0.076s-0.265-0.115-0.358-0.195c-0.102-0.086-0.177-0.188-0.228-0.304
		c-0.051-0.122-0.076-0.253-0.076-0.391c0-0.173,0.029-0.325,0.087-0.456c0.064-0.137,0.162-0.256,0.293-0.357
		c0.145-0.108,0.336-0.191,0.575-0.25c0.238-0.064,0.521-0.098,0.846-0.098h0.977v1.259c-0.051,0.116-0.126,0.225-0.228,0.325
		c-0.102,0.102-0.225,0.192-0.369,0.271c-0.138,0.08-0.293,0.145-0.467,0.195C722.849,255.873,722.668,255.898,722.473,255.898z"/>
	<path clip-path="url(#SVGID_2_)" fill-opacity="0" d="M481.7,34.004H691.39v45.735H481.7V34.004z"/>
	<path clip-path="url(#SVGID_2_)" d="M489.014,52.699v-9.277h6.261v1.096h-5.035v2.875h4.352v1.096h-4.352v4.21H489.014z
		 M496.298,49.335c0-1.244,0.344-2.163,1.031-2.756c0.578-0.499,1.284-0.749,2.115-0.749c0.927,0,1.683,0.304,2.269,0.912
		c0.586,0.6,0.879,1.436,0.879,2.506c0,0.861-0.131,1.541-0.391,2.04c-0.261,0.492-0.641,0.875-1.14,1.15
		c-0.492,0.275-1.031,0.413-1.617,0.413c-0.94,0-1.699-0.3-2.278-0.901C496.588,51.342,496.298,50.471,496.298,49.335z
		 M497.47,49.335c0,0.861,0.185,1.508,0.554,1.942c0.376,0.427,0.85,0.64,1.421,0.64c0.564,0,1.035-0.213,1.411-0.64
		c0.376-0.434,0.564-1.093,0.564-1.975c0-0.832-0.188-1.461-0.564-1.888s-0.847-0.64-1.411-0.64c-0.571,0-1.045,0.213-1.421,0.64
		C497.654,47.834,497.47,48.474,497.47,49.335z M503.916,52.699v-6.717h1.02v1.02c0.261-0.478,0.499-0.792,0.717-0.944
		c0.224-0.152,0.47-0.228,0.737-0.228c0.384,0,0.774,0.123,1.172,0.369l-0.391,1.052c-0.282-0.167-0.561-0.25-0.835-0.25
		c-0.254,0-0.478,0.076-0.673,0.228s-0.337,0.358-0.424,0.618c-0.13,0.405-0.195,0.85-0.195,1.335v3.516H503.916z M513.077,52.699
		l-2.062-6.717h1.183l1.063,3.874l0.401,1.443c0.022-0.072,0.138-0.535,0.348-1.389l1.074-3.928h1.172l0.998,3.896l0.337,1.28
		l0.391-1.291l1.149-3.885h1.107l-2.105,6.717h-1.183l-1.063-4.026l-0.261-1.139l-1.355,5.165H513.077z M525.798,50.539l1.172,0.141
		c-0.188,0.688-0.532,1.223-1.031,1.606c-0.499,0.376-1.14,0.564-1.921,0.564c-0.983,0-1.765-0.3-2.344-0.901
		c-0.571-0.607-0.857-1.458-0.856-2.55c-0.001-1.136,0.289-2.015,0.867-2.637c0.586-0.622,1.343-0.933,2.269-0.933
		c0.896,0,1.627,0.308,2.191,0.922c0.571,0.607,0.857,1.465,0.857,2.572c0,0.072,0,0.173,0,0.304h-5.013
		c0.043,0.738,0.253,1.306,0.629,1.704c0.376,0.391,0.843,0.586,1.399,0.586c0.42,0,0.778-0.109,1.074-0.326
		C525.389,51.368,525.624,51.017,525.798,50.539z M522.054,48.695h3.755c-0.051-0.564-0.195-0.988-0.435-1.27
		c-0.361-0.441-0.832-0.662-1.41-0.662c-0.521,0-0.962,0.177-1.324,0.532C522.285,47.642,522.09,48.109,522.054,48.695z
		 M529.443,52.699h-1.052v-9.277h1.139v3.309c0.485-0.6,1.1-0.9,1.845-0.9c0.412,0,0.803,0.083,1.172,0.25s0.673,0.401,0.912,0.706
		c0.238,0.296,0.423,0.658,0.553,1.085c0.138,0.427,0.206,0.882,0.206,1.367c0,1.15-0.285,2.04-0.856,2.669
		c-0.564,0.629-1.248,0.944-2.051,0.944c-0.789,0-1.411-0.333-1.867-0.999V52.699z M529.433,49.292c0,0.803,0.112,1.385,0.337,1.747
		c0.354,0.586,0.839,0.879,1.454,0.879c0.499,0,0.929-0.217,1.291-0.651c0.361-0.434,0.542-1.078,0.542-1.931
		c0-0.875-0.173-1.523-0.521-1.942c-0.347-0.419-0.771-0.629-1.27-0.629c-0.492,0-0.922,0.217-1.291,0.651
		C529.613,47.848,529.433,48.474,529.433,49.292z M543.591,51.874c-0.427,0.354-0.836,0.607-1.227,0.759
		c-0.383,0.145-0.799,0.217-1.248,0.217c-0.737,0-1.306-0.181-1.703-0.542c-0.397-0.362-0.597-0.821-0.597-1.378
		c0-0.333,0.076-0.633,0.228-0.9c0.152-0.275,0.348-0.492,0.586-0.651c0.246-0.167,0.521-0.293,0.825-0.38
		c0.217-0.058,0.553-0.116,1.009-0.174c0.919-0.108,1.595-0.239,2.029-0.391c0.007-0.159,0.011-0.257,0.011-0.293
		c0-0.463-0.108-0.792-0.325-0.987c-0.29-0.253-0.724-0.38-1.303-0.38c-0.535,0-0.93,0.094-1.183,0.282s-0.441,0.517-0.564,0.987
		l-1.117-0.152c0.102-0.47,0.268-0.85,0.499-1.139c0.231-0.297,0.567-0.524,1.009-0.684s0.948-0.239,1.52-0.239
		c0.578,0,1.045,0.069,1.399,0.206c0.362,0.13,0.626,0.3,0.792,0.51c0.174,0.202,0.293,0.459,0.358,0.77
		c0.036,0.195,0.055,0.546,0.055,1.053v1.519c0,1.056,0.024,1.725,0.075,2.007c0.051,0.275,0.145,0.542,0.282,0.803h-1.183
		C543.695,52.46,543.619,52.185,543.591,51.874z M543.493,49.324c-0.412,0.173-1.031,0.318-1.855,0.434
		c-0.471,0.065-0.803,0.141-0.998,0.228s-0.348,0.21-0.456,0.369c-0.102,0.159-0.152,0.34-0.152,0.542
		c0,0.304,0.116,0.557,0.348,0.759s0.567,0.304,1.009,0.304c0.435,0,0.821-0.094,1.161-0.282c0.348-0.195,0.601-0.459,0.76-0.792
		c0.123-0.261,0.185-0.641,0.185-1.14V49.324z M546.412,55.27v-9.288h1.031v0.868c0.246-0.34,0.521-0.593,0.824-0.76
		c0.312-0.173,0.688-0.26,1.129-0.26c0.571,0,1.074,0.148,1.508,0.445c0.441,0.29,0.774,0.706,0.998,1.248
		c0.225,0.535,0.337,1.125,0.337,1.769c0,0.687-0.123,1.306-0.369,1.855s-0.604,0.973-1.074,1.27
		c-0.47,0.289-0.966,0.434-1.486,0.434c-0.376,0-0.716-0.08-1.021-0.239c-0.304-0.159-0.55-0.362-0.737-0.608v3.266H546.412z
		 M547.443,49.378c0,0.861,0.174,1.501,0.521,1.92c0.354,0.412,0.777,0.619,1.27,0.619c0.507,0,0.94-0.213,1.302-0.64
		c0.362-0.434,0.543-1.1,0.543-1.997c0-0.854-0.178-1.494-0.531-1.921c-0.348-0.427-0.768-0.64-1.259-0.64
		c-0.485,0-0.915,0.228-1.292,0.684C547.628,47.852,547.443,48.51,547.443,49.378z M553.617,55.27v-9.288h1.031v0.868
		c0.246-0.34,0.521-0.593,0.824-0.76c0.312-0.173,0.688-0.26,1.129-0.26c0.571,0,1.074,0.148,1.508,0.445
		c0.441,0.29,0.774,0.706,0.999,1.248c0.224,0.535,0.336,1.125,0.336,1.769c0,0.687-0.123,1.306-0.369,1.855
		c-0.245,0.55-0.604,0.973-1.074,1.27c-0.47,0.289-0.966,0.434-1.486,0.434c-0.376,0-0.716-0.08-1.02-0.239s-0.55-0.362-0.738-0.608
		v3.266H553.617z M554.648,49.378c0,0.861,0.174,1.501,0.521,1.92c0.354,0.412,0.778,0.619,1.27,0.619
		c0.507,0,0.94-0.213,1.303-0.64c0.361-0.434,0.542-1.1,0.542-1.997c0-0.854-0.177-1.494-0.531-1.921
		c-0.348-0.427-0.767-0.64-1.259-0.64c-0.484,0-0.915,0.228-1.291,0.684C554.833,47.852,554.648,48.51,554.648,49.378z
		 M560.367,50.691l1.129-0.174c0.058,0.448,0.231,0.796,0.521,1.042c0.289,0.239,0.694,0.358,1.215,0.358
		c0.521,0,0.908-0.105,1.161-0.315c0.254-0.217,0.38-0.47,0.38-0.759c0-0.253-0.112-0.456-0.336-0.608
		c-0.152-0.101-0.539-0.228-1.161-0.38c-0.839-0.217-1.422-0.401-1.747-0.553c-0.318-0.152-0.561-0.362-0.727-0.629
		c-0.167-0.275-0.25-0.579-0.25-0.911c0-0.297,0.068-0.572,0.206-0.825c0.138-0.261,0.325-0.474,0.564-0.64
		c0.174-0.13,0.412-0.239,0.716-0.326c0.312-0.094,0.641-0.141,0.987-0.141c0.528,0,0.991,0.076,1.39,0.228
		c0.397,0.152,0.69,0.358,0.879,0.618c0.195,0.261,0.329,0.608,0.401,1.042l-1.118,0.152c-0.051-0.347-0.198-0.619-0.444-0.814
		c-0.239-0.195-0.579-0.293-1.021-0.293c-0.528,0-0.904,0.087-1.128,0.26c-0.218,0.174-0.326,0.376-0.326,0.608
		c0,0.145,0.044,0.278,0.131,0.401c0.094,0.123,0.242,0.224,0.444,0.304c0.108,0.043,0.441,0.141,0.998,0.293
		c0.811,0.21,1.375,0.383,1.693,0.521c0.318,0.137,0.567,0.336,0.748,0.597c0.182,0.261,0.271,0.586,0.271,0.977
		c0,0.383-0.112,0.742-0.336,1.074c-0.217,0.333-0.535,0.593-0.955,0.781c-0.42,0.181-0.894,0.271-1.422,0.271
		c-0.867,0-1.533-0.181-1.996-0.542C560.779,51.946,560.49,51.407,560.367,50.691z M567.594,52.699v-1.302h1.302v1.302
		c0,0.477-0.086,0.861-0.26,1.15c-0.167,0.297-0.435,0.524-0.803,0.684l-0.315-0.488c0.239-0.101,0.416-0.257,0.532-0.466
		c0.115-0.203,0.181-0.496,0.195-0.879H567.594z M575.737,52.699l-2.062-6.717h1.184l1.062,3.874l0.402,1.443
		c0.021-0.072,0.137-0.535,0.347-1.389l1.074-3.928h1.172l0.998,3.896l0.337,1.28l0.391-1.291l1.15-3.885h1.106l-2.105,6.717h-1.183
		l-1.063-4.026l-0.26-1.139l-1.356,5.165H575.737z M588.457,50.539l1.172,0.141c-0.188,0.688-0.532,1.223-1.031,1.606
		c-0.499,0.376-1.139,0.564-1.92,0.564c-0.984,0-1.766-0.3-2.344-0.901c-0.572-0.607-0.857-1.458-0.857-2.55
		c0-1.136,0.289-2.015,0.868-2.637c0.586-0.622,1.342-0.933,2.268-0.933c0.896,0,1.628,0.308,2.191,0.922
		c0.571,0.607,0.857,1.465,0.857,2.572c0,0.072,0,0.173,0,0.304h-5.013c0.043,0.738,0.253,1.306,0.629,1.704
		c0.376,0.391,0.843,0.586,1.4,0.586c0.419,0,0.777-0.109,1.074-0.326C588.048,51.368,588.283,51.017,588.457,50.539z
		 M584.713,48.695h3.755c-0.051-0.564-0.195-0.988-0.435-1.27c-0.361-0.441-0.831-0.662-1.41-0.662
		c-0.521,0-0.962,0.177-1.324,0.532C584.945,47.642,584.75,48.109,584.713,48.695z M592.104,52.699h-1.053v-9.277h1.14v3.309
		c0.484-0.6,1.099-0.9,1.844-0.9c0.413,0,0.804,0.083,1.172,0.25c0.369,0.167,0.673,0.401,0.912,0.706
		c0.238,0.296,0.423,0.658,0.553,1.085c0.138,0.427,0.207,0.882,0.207,1.367c0,1.15-0.286,2.04-0.857,2.669
		c-0.564,0.629-1.248,0.944-2.051,0.944c-0.789,0-1.411-0.333-1.866-0.999V52.699z M592.093,49.292c0,0.803,0.111,1.385,0.336,1.747
		c0.354,0.586,0.839,0.879,1.454,0.879c0.499,0,0.93-0.217,1.291-0.651s0.543-1.078,0.543-1.931c0-0.875-0.174-1.523-0.521-1.942
		c-0.347-0.419-0.771-0.629-1.27-0.629c-0.491,0-0.922,0.217-1.291,0.651C592.273,47.848,592.093,48.474,592.093,49.292z
		 M597.812,50.691l1.128-0.174c0.058,0.448,0.231,0.796,0.521,1.042c0.29,0.239,0.694,0.358,1.216,0.358
		c0.521,0,0.908-0.105,1.161-0.315c0.253-0.217,0.38-0.47,0.38-0.759c0-0.253-0.112-0.456-0.337-0.608
		c-0.151-0.101-0.539-0.228-1.161-0.38c-0.839-0.217-1.421-0.401-1.747-0.553c-0.317-0.152-0.561-0.362-0.727-0.629
		c-0.166-0.275-0.25-0.579-0.25-0.911c0-0.297,0.069-0.572,0.207-0.825c0.137-0.261,0.325-0.474,0.563-0.64
		c0.174-0.13,0.412-0.239,0.717-0.326c0.311-0.094,0.64-0.141,0.987-0.141c0.528,0,0.991,0.076,1.389,0.228s0.69,0.358,0.879,0.618
		c0.195,0.261,0.329,0.608,0.401,1.042l-1.117,0.152c-0.051-0.347-0.199-0.619-0.445-0.814c-0.238-0.195-0.578-0.293-1.02-0.293
		c-0.528,0-0.904,0.087-1.129,0.26c-0.217,0.174-0.325,0.376-0.325,0.608c0,0.145,0.043,0.278,0.13,0.401
		c0.094,0.123,0.242,0.224,0.445,0.304c0.108,0.043,0.441,0.141,0.998,0.293c0.811,0.21,1.374,0.383,1.692,0.521
		c0.318,0.137,0.568,0.336,0.749,0.597c0.181,0.261,0.271,0.586,0.271,0.977c0,0.383-0.112,0.742-0.337,1.074
		c-0.217,0.333-0.535,0.593-0.955,0.781c-0.419,0.181-0.893,0.271-1.421,0.271c-0.868,0-1.533-0.181-1.997-0.542
		C598.224,51.946,597.934,51.407,597.812,50.691z M604.745,44.734v-1.313h1.139v1.313H604.745z M604.745,52.699v-6.717h1.139v6.717
		H604.745z M610.107,51.679l0.163,1.009c-0.318,0.065-0.604,0.098-0.857,0.098c-0.412,0-0.733-0.065-0.966-0.195
		c-0.224-0.13-0.383-0.3-0.477-0.51c-0.095-0.217-0.142-0.666-0.142-1.346v-3.874h-0.835v-0.879h0.835v-1.66l1.129-0.684v2.344
		h1.149v0.879h-1.149V50.8c0,0.318,0.018,0.524,0.054,0.618c0.044,0.094,0.108,0.17,0.195,0.228
		c0.094,0.051,0.229,0.076,0.401,0.076C609.731,51.722,609.898,51.708,610.107,51.679z M615.823,50.539l1.172,0.141
		c-0.188,0.688-0.532,1.223-1.031,1.606c-0.499,0.376-1.139,0.564-1.92,0.564c-0.984,0-1.766-0.3-2.344-0.901
		c-0.571-0.607-0.857-1.458-0.857-2.55c0-1.136,0.289-2.015,0.868-2.637c0.586-0.622,1.342-0.933,2.268-0.933
		c0.897,0,1.628,0.308,2.192,0.922c0.571,0.607,0.856,1.465,0.856,2.572c0,0.072,0,0.173,0,0.304h-5.013
		c0.043,0.738,0.253,1.306,0.629,1.704c0.377,0.391,0.843,0.586,1.4,0.586c0.419,0,0.777-0.109,1.074-0.326
		C615.414,51.368,615.649,51.017,615.823,50.539z M612.08,48.695h3.754c-0.051-0.564-0.195-0.988-0.434-1.27
		c-0.362-0.441-0.832-0.662-1.411-0.662c-0.521,0-0.962,0.177-1.323,0.532C612.312,47.642,612.116,48.109,612.08,48.695z
		 M617.973,50.691l1.128-0.174c0.058,0.448,0.231,0.796,0.521,1.042c0.29,0.239,0.695,0.358,1.216,0.358s0.907-0.105,1.161-0.315
		c0.253-0.217,0.38-0.47,0.38-0.759c0-0.253-0.112-0.456-0.337-0.608c-0.151-0.101-0.539-0.228-1.161-0.38
		c-0.839-0.217-1.421-0.401-1.747-0.553c-0.318-0.152-0.561-0.362-0.727-0.629c-0.166-0.275-0.25-0.579-0.25-0.911
		c0-0.297,0.069-0.572,0.207-0.825c0.137-0.261,0.325-0.474,0.563-0.64c0.174-0.13,0.413-0.239,0.717-0.326
		c0.311-0.094,0.64-0.141,0.987-0.141c0.527,0,0.991,0.076,1.389,0.228s0.69,0.358,0.879,0.618c0.195,0.261,0.329,0.608,0.401,1.042
		l-1.117,0.152c-0.051-0.347-0.199-0.619-0.445-0.814c-0.238-0.195-0.579-0.293-1.02-0.293c-0.528,0-0.904,0.087-1.129,0.26
		c-0.217,0.174-0.325,0.376-0.325,0.608c0,0.145,0.043,0.278,0.13,0.401c0.094,0.123,0.242,0.224,0.445,0.304
		c0.108,0.043,0.44,0.141,0.998,0.293c0.81,0.21,1.374,0.383,1.692,0.521c0.318,0.137,0.568,0.336,0.749,0.597
		c0.181,0.261,0.271,0.586,0.271,0.977c0,0.383-0.112,0.742-0.337,1.074c-0.217,0.333-0.535,0.593-0.955,0.781
		c-0.419,0.181-0.893,0.271-1.421,0.271c-0.868,0-1.534-0.181-1.997-0.542C618.385,51.946,618.096,51.407,617.973,50.691z"/>
	<path clip-path="url(#SVGID_2_)" fill-opacity="0" d="M478.159,102.009h209.688v45.735H478.159V102.009z"/>
	<path clip-path="url(#SVGID_2_)" d="M485.472,120.703v-9.277h6.262v1.096h-5.035v2.875h4.352v1.096h-4.352v4.21H485.472z
		 M492.757,117.339c0-1.244,0.344-2.163,1.03-2.756c0.579-0.499,1.284-0.749,2.116-0.749c0.926,0,1.682,0.304,2.268,0.912
		c0.586,0.601,0.879,1.436,0.879,2.506c0,0.861-0.13,1.541-0.391,2.04c-0.26,0.492-0.64,0.875-1.139,1.15
		c-0.492,0.275-1.031,0.413-1.617,0.413c-0.94,0-1.7-0.3-2.278-0.901C493.046,119.347,492.757,118.475,492.757,117.339z
		 M493.929,117.339c0,0.861,0.185,1.508,0.553,1.942c0.377,0.427,0.851,0.64,1.422,0.64c0.564,0,1.034-0.213,1.41-0.64
		c0.377-0.434,0.564-1.092,0.564-1.975c0-0.832-0.188-1.461-0.564-1.888c-0.376-0.427-0.846-0.641-1.41-0.641
		c-0.571,0-1.045,0.214-1.422,0.641C494.113,115.838,493.929,116.479,493.929,117.339z M500.374,120.703v-6.717h1.021v1.02
		c0.26-0.478,0.499-0.792,0.716-0.944c0.225-0.152,0.47-0.228,0.738-0.228c0.383,0,0.773,0.123,1.172,0.369l-0.391,1.052
		c-0.282-0.166-0.562-0.25-0.836-0.25c-0.253,0-0.478,0.076-0.673,0.228s-0.336,0.358-0.423,0.618
		c-0.13,0.405-0.195,0.85-0.195,1.335v3.516H500.374z M508.43,120.703v-9.277h1.258l4.872,7.281v-7.281h1.172v9.277h-1.259
		l-4.871-7.292v7.292H508.43z M517.232,117.339c0-1.244,0.344-2.163,1.03-2.756c0.579-0.499,1.284-0.749,2.116-0.749
		c0.926,0,1.682,0.304,2.268,0.912c0.586,0.601,0.879,1.436,0.879,2.506c0,0.861-0.13,1.541-0.391,2.04
		c-0.261,0.492-0.641,0.875-1.14,1.15c-0.491,0.275-1.03,0.413-1.616,0.413c-0.94,0-1.7-0.3-2.279-0.901
		C517.521,119.347,517.232,118.475,517.232,117.339z M518.404,117.339c0,0.861,0.184,1.508,0.553,1.942
		c0.377,0.427,0.851,0.64,1.422,0.64c0.564,0,1.034-0.213,1.41-0.64c0.377-0.434,0.564-1.092,0.564-1.975
		c0-0.832-0.188-1.461-0.564-1.888c-0.376-0.427-0.846-0.641-1.41-0.641c-0.571,0-1.045,0.214-1.422,0.641
		C518.588,115.838,518.404,116.479,518.404,117.339z M529.212,120.703v-0.847c-0.42,0.666-1.046,0.999-1.877,0.999
		c-0.536,0-1.027-0.148-1.477-0.445c-0.448-0.297-0.795-0.709-1.041-1.237c-0.246-0.528-0.369-1.135-0.369-1.823
		c0-0.673,0.112-1.28,0.336-1.823c0.225-0.55,0.558-0.969,0.999-1.259c0.448-0.289,0.951-0.434,1.508-0.434
		c0.405,0,0.764,0.087,1.074,0.26c0.318,0.167,0.575,0.387,0.771,0.662v-3.331h1.14v9.277H529.212z M525.62,117.35
		c0,0.861,0.181,1.505,0.543,1.932c0.361,0.427,0.788,0.64,1.28,0.64c0.499,0,0.922-0.203,1.27-0.608
		c0.347-0.412,0.521-1.034,0.521-1.866c0-0.918-0.177-1.591-0.531-2.018c-0.354-0.434-0.793-0.651-1.313-0.651
		c-0.499,0-0.919,0.207-1.259,0.619C525.79,115.81,525.62,116.46,525.62,117.35z M536.667,118.544l1.172,0.141
		c-0.188,0.688-0.532,1.223-1.031,1.606c-0.499,0.376-1.14,0.564-1.921,0.564c-0.983,0-1.765-0.3-2.344-0.901
		c-0.571-0.607-0.856-1.458-0.856-2.55c0-1.136,0.289-2.015,0.868-2.637c0.586-0.622,1.342-0.933,2.268-0.933
		c0.896,0,1.627,0.308,2.191,0.922c0.571,0.607,0.857,1.465,0.857,2.572c0,0.072,0,0.173,0,0.304h-5.013
		c0.043,0.738,0.253,1.306,0.629,1.704c0.376,0.391,0.843,0.586,1.399,0.586c0.42,0,0.778-0.108,1.074-0.326
		C536.258,119.372,536.493,119.021,536.667,118.544z M532.923,116.699h3.755c-0.051-0.564-0.195-0.987-0.435-1.27
		c-0.361-0.441-0.832-0.662-1.41-0.662c-0.521,0-0.962,0.177-1.324,0.532C533.154,115.646,532.959,116.113,532.923,116.699z
		 M539.586,120.703v-1.302h1.302v1.302H539.586z M542.383,118.066l1.106-0.152c0.036,0.709,0.17,1.197,0.401,1.465
		c0.239,0.26,0.568,0.391,0.987,0.391c0.304,0,0.568-0.069,0.792-0.207c0.225-0.145,0.377-0.336,0.456-0.575
		c0.087-0.246,0.13-0.637,0.13-1.172v-6.391h1.227v6.326c0,0.774-0.094,1.375-0.282,1.801s-0.484,0.752-0.89,0.977
		c-0.405,0.225-0.883,0.336-1.433,0.336c-0.81,0-1.432-0.235-1.866-0.705C542.578,119.69,542.368,118.992,542.383,118.066z
		 M549.077,117.719l1.15-0.098c0.058,0.463,0.185,0.843,0.38,1.139c0.202,0.297,0.514,0.539,0.934,0.727
		c0.427,0.181,0.903,0.271,1.432,0.271c0.463,0,0.875-0.068,1.237-0.206c0.361-0.137,0.629-0.325,0.803-0.564
		c0.174-0.246,0.261-0.514,0.261-0.803c0-0.289-0.087-0.542-0.261-0.759c-0.166-0.217-0.441-0.402-0.824-0.554
		c-0.254-0.094-0.807-0.242-1.66-0.445c-0.847-0.209-1.439-0.405-1.78-0.586c-0.448-0.231-0.781-0.517-0.998-0.857
		c-0.217-0.347-0.325-0.734-0.325-1.161c0-0.463,0.134-0.897,0.401-1.302c0.268-0.412,0.654-0.723,1.161-0.933
		c0.514-0.209,1.081-0.314,1.703-0.314c0.688,0,1.292,0.112,1.812,0.336c0.528,0.217,0.933,0.542,1.215,0.977
		c0.282,0.427,0.435,0.911,0.456,1.454l-1.172,0.087c-0.065-0.586-0.282-1.027-0.651-1.324c-0.361-0.304-0.896-0.456-1.605-0.456
		c-0.745,0-1.288,0.137-1.628,0.412s-0.51,0.604-0.51,0.987c0,0.333,0.123,0.604,0.369,0.814c0.231,0.217,0.846,0.441,1.845,0.673
		c0.998,0.224,1.682,0.419,2.051,0.586c0.542,0.246,0.94,0.561,1.193,0.944c0.261,0.383,0.391,0.825,0.391,1.324
		c0,0.492-0.142,0.958-0.423,1.4c-0.282,0.434-0.688,0.774-1.216,1.02c-0.528,0.239-1.125,0.358-1.79,0.358
		c-0.84,0-1.545-0.123-2.116-0.369c-0.564-0.246-1.009-0.615-1.335-1.107C549.258,118.898,549.092,118.341,549.077,117.719z"/>
	<path clip-path="url(#SVGID_2_)" fill-opacity="0" d="M277.69,124.876c17.177,0,25.766-17.585,34.354-35.17
		c8.588-17.585,17.174-35.171,34.347-35.171"/>
	<path clip-path="url(#SVGID_2_)" fill="none" stroke="#000000" stroke-linejoin="round" stroke-miterlimit="10" d="M277.69,124.876
		c17.177,0,25.766-17.585,34.354-35.17c8.588-17.585,17.174-35.171,34.347-35.171"/>
	<path clip-path="url(#SVGID_2_)" fill-opacity="0" d="M277.69,124.876c17.354,0,26.03-0.049,34.708-0.098
		c8.678-0.049,17.358-0.099,34.715-0.099"/>
	<path clip-path="url(#SVGID_2_)" fill="none" stroke="#000000" stroke-linejoin="round" stroke-miterlimit="10" d="M277.69,124.876
		c17.354,0,26.03-0.049,34.708-0.098c8.678-0.049,17.358-0.099,34.715-0.099"/>
	<path clip-path="url(#SVGID_2_)" fill-opacity="0" d="M277.69,124.876c17,0,25.5,16.771,34,33.541s17,33.542,34.001,33.542"/>
	<path clip-path="url(#SVGID_2_)" fill="none" stroke="#000000" stroke-linejoin="round" stroke-miterlimit="10" d="M277.69,124.876
		c17,0,25.5,16.771,34,33.541s17,33.542,34.001,33.542"/>
	<path clip-path="url(#SVGID_2_)" fill-opacity="0" d="M460.453,191.967c8.499,0,12.75,0.175,16.998,0.35
		c4.249,0.175,8.496,0.35,16.991,0.35"/>
	<path clip-path="url(#SVGID_2_)" fill="none" stroke="#000000" stroke-linejoin="round" stroke-miterlimit="10" d="
		M460.453,191.967c8.499,0,12.75,0.175,16.998,0.35c4.249,0.175,8.496,0.35,16.991,0.35"/>
	<path clip-path="url(#SVGID_2_)" fill-opacity="0" d="M609.214,192.675c7.259,0,10.888-0.175,14.519-0.35
		c3.631-0.175,7.264-0.35,14.527-0.35"/>
	<path clip-path="url(#SVGID_2_)" fill="none" stroke="#000000" stroke-linejoin="round" stroke-miterlimit="10" d="
		M609.214,192.675c7.259,0,10.888-0.175,14.519-0.35c3.631-0.175,7.264-0.35,14.527-0.35"/>
	<path clip-path="url(#SVGID_2_)" fill-opacity="0" d="M609.214,192.675c7.259,0,10.888,14.878,14.519,29.757
		s7.264,29.758,14.527,29.758"/>
	<path clip-path="url(#SVGID_2_)" fill="none" stroke="#000000" stroke-linejoin="round" stroke-miterlimit="10" d="
		M609.214,192.675c7.259,0,10.888,14.878,14.519,29.757s7.264,29.758,14.527,29.758"/>
</g>
<line fill="none" stroke="#000000" stroke-miterlimit="10" x1="307" y1="86" x2="315.386" y2="82.938"/>
<line fill="none" stroke="#000000" stroke-miterlimit="10" x1="315.386" y1="91" x2="315.386" y2="82.938"/>
<line fill="none" stroke="#000000" stroke-miterlimit="10" x1="315.386" y1="119" x2="322.5" y2="124.726"/>
<line fill="none" stroke="#000000" stroke-miterlimit="10" x1="322.5" y1="124.726" x2="315.386" y2="130.5"/>
<line fill="none" stroke="#000000" stroke-miterlimit="10" x1="315.386" y1="155" x2="315.386" y2="164.5"/>
<line fill="none" stroke="#000000" stroke-miterlimit="10" x1="307" y1="159.75" x2="315.386" y2="164.5"/>
<line fill="none" stroke="#000000" stroke-miterlimit="10" x1="480" y1="192.42" x2="475" y2="186.5"/>
<line fill="none" stroke="#000000" stroke-miterlimit="10" x1="480" y1="192.42" x2="475" y2="198"/>
</svg>
