<svg height="32" width="32" viewBox="281.50217851 217.85650736 65.28749297 62.41750592" 
    xmlns="http://www.w3.org/2000/svg" 
    xmlns:xlink="http://www.w3.org/1999/xlink">
    <defs>
        <path id="a" d="m336.51 277.27 7.28-4.98c-.4-1.17-.62-1.82-.67-1.95-1.91-5.92-5.19-11.29-9.68-15.71-4.48-3.61-8.62-9.07-10.89-14.34-.02-.09-.12-.56-.29-1.4l-7.29 4.98c.23.81.36 1.26.39 1.35 2.27 5.26 6.38 10.87 10.89 14.34 4.43 4.32 7.77 9.79 9.68 15.7.08.27.27.94.58 2.01z"/>
        <path id="b" d="m311.04 222.5-7.29 4.99-2.49-3.65 7.28-4.98z"/>
        <path id="c" d="m282.93 239.47-.43-2.78c3.83-1.1 5.95-1.71 6.38-1.83 4.69-1.34 9.04-3.38 13.05-6.13.73-.5 4.37-2.99 10.93-7.48l11.22 16.39c-6.56 4.49-10.2 6.98-10.93 7.48-4 2.74-7.48 6.06-10.43 9.96-.27.35-1.61 2.11-4.01 5.28-1.46-.85-2.27-1.32-2.43-1.41-7.07-4.26-11.93-11.36-13.35-19.48"/>
        <path id="d" d="m282.5 236.69 6.13-1.79c.26 1.43.4 2.22.43 2.38 1.16 6.96 5.4 13.15 11.47 16.75.14.08.83.5 2.07 1.26l-3.89 5.07c-1.46-.85-2.27-1.32-2.43-1.41-7.07-4.26-11.93-11.36-13.35-19.48-.05-.37-.2-1.3-.43-2.78z"/>
        <path id="e" d="m339.91 262.91c.34.7.72 1.24 1.06 1.94-.24.17-2.21 1.52-2.45 1.69-.55.37-1.16.26-1.54-.29-.37-.55-.26-1.16.29-1.53.26-.18 2.37-1.63 2.64-1.81-.09.06-.09.06 0 0"/>
        <path id="f" d="m342.74 268.99c-1.59 1.09-2.47 1.69-2.64 1.81-.55.38-1.16.26-1.54-.28-.37-.55-.25-1.16.29-1.54.28-.19 2.54-1.74 2.82-1.93.1-.06.1-.06.19-.13.34.7.53 1.37.88 2.07"/>
    </defs>
    <use fill="#9e5a23" xlink:href="#a"/>
    <use fill="none" xlink:href="#a"/>
    <use fill="#9e5a23" xlink:href="#b"/>
    <use fill="none" xlink:href="#b"/>
    <use fill="#d1d1d1" xlink:href="#c"/>
    <use fill="none" xlink:href="#c"/>
    <use fill="#dd342e" xlink:href="#d"/>
    <use fill="none" xlink:href="#d"/>
    <use fill="#844414" xlink:href="#e"/>
    <use fill="none" xlink:href="#e"/>
    <use fill="#844414" xlink:href="#f"/>
    <use fill="none" xlink:href="#f"/>
</svg>