 <svg viewBox="0 0 512 512" xmlns="http://www.w3.org/2000/svg">
    <path
      d="m104 32v480h304v-480zm136 456h-112v-192h112zm0-240h-112v-192h112zm144 240h-112v-192h112zm0-240h-112v-192h112z"
      fill="#af6328"
    />
    <path d="m368 232v-160l16-16v192h-112l16-16z" fill="#7f4122" />
    <g fill="#a25425">
      <path d="m304 88v128l-16 16h80v-160l-16 16z" />
      <path d="m288 72h80l16-16h-112v192l16-16z" />
      <path d="m160 88v128l-16 16h80v-160l-16 16z" />
      <path d="m144 72h80l16-16h-112v192l16-16z" />
    </g>
    <path d="m304 88v128l-16 16v-160h80l-16 16z" fill="#af6328" />
    <path d="m224 232v-160l16-16v192h-112l16-16z" fill="#7f4122" />
    <path d="m160 88v128l-16 16v-160h80l-16 16z" fill="#af6328" />
    <path d="m160 328v128l-16 16h80v-160l-16 16z" fill="#a25425" />
    <path d="m144 312h80l16-16h-112v192l16-16z" fill="#a25425" />
    <path d="m224 472v-160l16-16v192h-112l16-16z" fill="#7f4122" />
    <path d="m160 328v128l-16 16v-160h80l-16 16z" fill="#af6328" />
    <path d="m304 328v128l-16 16h80v-160l-16 16z" fill="#a25425" />
    <path d="m288 312h80l16-16h-112v192l16-16z" fill="#a25425" />
    <path d="m368 472v-160l16-16v192h-112l16-16z" fill="#7f4122" />
    <path d="m304 328v128l-16 16v-160h80l-16 16z" fill="#af6328" />
    <path
      d="m376 264h-48c-4.418 0-8 3.582-8 8s3.582 8 8 8h40c0 4.418 3.582 8 8 8s8-3.582 8-8v-8c0-4.418-3.582-8-8-8z"
      fill="#f6b74e"
    />
  </svg>