 <svg width="512" height="512" viewBox="0 0 128 128" xmlns="http://www.w3.org/2000/svg">
    <path
      d="m66.016 80.695h-4.032a23.689 23.689 0 0 1 -23.689-23.689v-9.213h51.41v9.213a23.689 23.689 0 0 1 -23.689 23.689z"
      fill="#ffdaa8"
    />
    <path
      d="m64 80.695h2.016a23.689 23.689 0 0 0 23.689-23.689v-9.213h-25.705z"
      fill="#ffc373"
    />
    <path
      d="m113.94 108.68v6.29h-99.88v-6.29c0-11.96 9.7-22.64 21.66-22.64l13.67-1.25a7.051 7.051 0 0 0 5.63-4.95l1.27-4.29h15.42l1.27 4.29a7.051 7.051 0 0 0 5.63 4.95l13.67 1.25c11.96 0 21.66 10.68 21.66 22.64z"
      fill="#fcb740"
    />
    <path
      d="m92.28 86.04-13.67-1.25a7.051 7.051 0 0 1 -5.63-4.95l-1.27-4.29h-7.71v39.42h49.94v-6.29c0-11.96-9.7-22.64-21.66-22.64z"
      fill="#fc8800"
    />
    <path
      d="m64 95.261c6.165 0 11.238-5.03 11.93-11.506a7.044 7.044 0 0 1 -2.946-3.92l-1.269-4.281h-15.43l-1.269 4.281a7.044 7.044 0 0 1 -2.946 3.92c.692 6.476 5.765 11.506 11.93 11.506z"
      fill="#ffc373"
    />
    <path
      d="m74.741 71.413a5.472 5.472 0 0 0 -2.4.554 10.308 10.308 0 0 0 -16.693 0 5.472 5.472 0 0 0 -2.4-.554c-11.491-4.587-14.964-23.62-14.964-23.62v9.213a23.636 23.636 0 0 0 9.544 18.985 5.483 5.483 0 0 0 6.733 6.266 10.324 10.324 0 0 0 18.857 0 5.477 5.477 0 0 0 6.733-6.266 23.636 23.636 0 0 0 9.544-18.985v-9.213s-3.462 19.033-14.954 23.62z"
      fill="#d96200"
    />
    <path
      d="m33.65 104.69v10.28h-3.5v-10.28a1.75 1.75 0 0 1 3.5 0z"
      fill="#fc8800"
    />
    <path
      d="m97.84 104.69v10.28h-3.5v-10.28a1.75 1.75 0 0 1 3.5 0z"
      fill="#fcb740"
    />
    <path
      d="m32.7 53.39a5.6 5.6 0 0 0 5.6 5.6v-11.2a5.6 5.6 0 0 0 -5.6 5.6z"
      fill="#ffdaa8"
    />
    <path
      d="m95.3 53.39a5.6 5.6 0 0 0 -5.6-5.6v11.2a5.6 5.6 0 0 0 5.6-5.6z"
      fill="#ffc373"
    />
    <path
      d="m55.306 51.607a2.566 2.566 0 1 0 2.566 2.566 2.569 2.569 0 0 0 -2.566-2.566z"
      fill="#ff9f60"
    />
    <path
      d="m72.694 51.607a2.566 2.566 0 1 0 2.565 2.566 2.569 2.569 0 0 0 -2.565-2.566z"
      fill="#ff9f60"
    />
    <path
      d="m65 60.635-.637-.445 1.326-5.107a1.75 1.75 0 1 0 -3.387-.88l-1.632 6.283a1.749 1.749 0 0 0 .69 1.874l1.64 1.14a1.75 1.75 0 0 0 2-2.865z"
      fill="#ff9f60"
    />
    <rect
      fill="#ff415a"
      height="14.69"
      rx="2.57"
      width="54.2"
      x="36.9"
      y="33.1"
    />
    <path
      d="m58.608 13h10.784a17.858 17.858 0 0 1 17.858 17.858v2.242a0 0 0 0 1 0 0h-46.5a0 0 0 0 1 0 0v-2.24a17.858 17.858 0 0 1 17.858-17.86z"
      fill="#ff415a"
    />
    <path d="m45.187 85.174-7.25.661v29.102h7.25z" fill="#d96200" />
    <path d="m90.062 85.835-7.25-.661v29.763h7.25z" fill="#af4b00" />
    <path d="m33.65 109.828h16.6v5.109h-16.6z" fill="#ffffed" />
    <path d="m77.75 109.828h16.59v5.109h-16.59z" fill="#fff0c3" />
    <path
      d="m69.392 13h-5.392v20.1h23.25v-2.24a17.858 17.858 0 0 0 -17.858-17.86z"
      fill="#ce0050"
    />
    <path
      d="m73.429 82.256a5.477 5.477 0 0 0 6.733-6.266 23.636 23.636 0 0 0 9.544-18.985v-9.212s-3.473 19.033-14.964 23.62a5.472 5.472 0 0 0 -2.4.554 10.309 10.309 0 0 0 -8.342-4.259v20.667a10.329 10.329 0 0 0 9.429-6.119z"
      fill="#af4b00"
    />
    <path
      d="m88.53 33.1h-24.53v14.69h24.53a2.569 2.569 0 0 0 2.57-2.57v-9.55a2.569 2.569 0 0 0 -2.57-2.57z"
      fill="#ce0050"
    />
    <g fill="#9f0352">
      <path d="m44.25 33.1h3.5v14.69h-3.5z" />
      <path d="m53.25 33.1h3.5v14.69h-3.5z" />
      <path d="m62.25 33.1h3.5v14.69h-3.5z" />
      <path d="m71.25 33.1h3.5v14.69h-3.5z" />
      <path d="m80.25 33.1h3.5v14.69h-3.5z" />
    </g>
    <path
      d="m64 78.29a4.672 4.672 0 0 1 -4.667-4.667 1.75 1.75 0 0 1 3.5 0 1.167 1.167 0 0 0 2.333 0 1.75 1.75 0 1 1 3.5 0 4.672 4.672 0 0 1 -4.666 4.667z"
      fill="#ff9f60"
    />
    <g fill="#28092d">
      <path d="m100.043 85.718c-.2-.076-.4-.149-.6-.22a1.75 1.75 0 1 0 -1.152 3.3c.173.06.345.123.516.188a1.75 1.75 0 1 0 1.24-3.272z" />
      <path d="m105.229 88.5a1.75 1.75 0 1 0 -2.027 2.853 21.61 21.61 0 0 1 8.989 17.333v6.288a1.75 1.75 0 0 0 3.5 0v-6.288a25.162 25.162 0 0 0 -10.462-20.186z" />
      <path d="m96.095 102.937a1.75 1.75 0 0 0 -1.75 1.75v3.391h-2.533v-20.326l.306.028q.082.007.161.007a1.75 1.75 0 0 0 .157-3.493l-13.6-1.241c-.056-.01-.109-.032-.165-.044a7.259 7.259 0 0 0 3.329-6.092c0-.044 0-.088 0-.133a25.169 25.169 0 0 0 9.2-16.2 7.347 7.347 0 0 0 1.4-13.948 4.266 4.266 0 0 0 .258-1.415v-9.553a4.326 4.326 0 0 0 -4.32-4.321h-46.038v-.49a15.946 15.946 0 0 1 1.617-7.043 1.75 1.75 0 0 0 -3.146-1.533 19.423 19.423 0 0 0 -1.971 8.577v.537a4.312 4.312 0 0 0 -3.855 4.274v9.554a4.266 4.266 0 0 0 .258 1.415 7.347 7.347 0 0 0 1.409 13.95 25.093 25.093 0 0 0 5.178 12.13 1.75 1.75 0 0 0 2.749-2.167 21.636 21.636 0 0 1 -4.579-11.271c2.467 5.455 6.413 11.348 12.45 13.758a1.758 1.758 0 0 0 .649.125 3.711 3.711 0 0 1 1.631.379 1.75 1.75 0 0 0 2.178-.542 8.614 8.614 0 0 1 6.932-3.542 8.5 8.5 0 0 1 6.933 3.542 1.75 1.75 0 0 0 2.828-2.062 12.054 12.054 0 0 0 -18.673-1.038 7.169 7.169 0 0 0 -1.46-.227c-8.128-3.473-11.909-15.317-13.138-20.131h47.02c-1.037 4.065-3.9 13.137-9.671 17.968a1.75 1.75 0 1 0 2.246 2.69 30.7 30.7 0 0 0 7.756-10.93 21.736 21.736 0 0 1 -8.727 15.318 1.75 1.75 0 0 0 -.678 1.7 3.734 3.734 0 0 1 -4.592 4.27 1.75 1.75 0 0 0 -2.013.984 8.574 8.574 0 0 1 -15.664 0 1.749 1.749 0 0 0 -2.013-.984 3.736 3.736 0 0 1 -4.651-3.64 3.81 3.81 0 0 1 .059-.633 1.75 1.75 0 1 0 -3.45-.586 7.2 7.2 0 0 0 3.214 7.313c-.055.011-.107.034-.163.043l-13.522 1.232c-12.656.048-23.333 11.2-23.333 24.394v6.288a1.75 1.75 0 0 0 3.5 0v-6.288c0-11.326 9.12-20.894 19.914-20.894.053 0 .106 0 .159-.007l.306-.028v20.326h-2.532v-3.391a1.75 1.75 0 0 0 -3.5 0v10.282a1.75 1.75 0 0 0 3.5 0v-3.391h14.845v3.36a1.75 1.75 0 0 0 3.5 0v-5.11a1.75 1.75 0 0 0 -1.75-1.75h-10.563v-20.645l3.75-.342v16.409a1.75 1.75 0 1 0 3.5 0v-16.729l2.611-.238c.041 0 .082-.009.123-.016a8.813 8.813 0 0 0 4.212-1.923 12.015 12.015 0 0 0 20.111.18c-1.054 5.057-5.167 8.737-9.994 8.737a9.908 9.908 0 0 1 -8.087-4.335 1.75 1.75 0 0 0 -2.851 2.03 13.365 13.365 0 0 0 10.938 5.805c6.249 0 11.593-4.487 13.234-10.754a8.745 8.745 0 0 0 1.1.26c.04.007.081.012.122.016l9.86.9v20.645h-3.75v-16.578a1.75 1.75 0 1 0 -3.5 0v16.578h-3.316a1.75 1.75 0 0 0 -1.75 1.75v5.11a1.75 1.75 0 0 0 3.5 0v-3.36h14.845v3.391a1.75 1.75 0 0 0 3.5 0v-10.282a1.75 1.75 0 0 0 -1.75-1.75zm-4.64-46.137v-6.817a3.816 3.816 0 0 1 0 6.814zm-2.1-21.129v9.554a.821.821 0 0 1 -.82.82h-4.785v-11.197h4.784a.822.822 0 0 1 .82.82zm-34.355.912a1.75 1.75 0 0 0 -1.75 1.75v7.709h-5.5v-11.194h14.5v11.194h-5.5v-7.709a1.75 1.75 0 0 0 -1.75-1.75zm10.75-1.736h5.5v6.319a1.75 1.75 0 0 0 3.5 0v-6.318h5.5v11.194h-14.5zm-27.1.821a.822.822 0 0 1 .821-.821h4.779v11.195h-4.784a.822.822 0 0 1 -.821-.82zm-4.2 17.722a3.837 3.837 0 0 1 2.1-3.407v6.817a3.838 3.838 0 0 1 -2.103-3.41z" />
      <path d="m52.74 54.173a2.566 2.566 0 1 0 2.566-2.566 2.569 2.569 0 0 0 -2.566 2.566z" />
      <path d="m72.694 51.607a2.566 2.566 0 1 0 2.565 2.566 2.569 2.569 0 0 0 -2.565-2.566z" />
      <path d="m64.44 52.949a1.753 1.753 0 0 0 -2.134 1.251l-1.632 6.283a1.749 1.749 0 0 0 .69 1.874l1.636 1.143a1.75 1.75 0 0 0 2-2.865l-.637-.445 1.326-5.107a1.75 1.75 0 0 0 -1.249-2.134z" />
      <path d="m46 19.961a1.743 1.743 0 0 0 1.234-.509q.247-.245.5-.48a1.75 1.75 0 1 0 -2.362-2.583q-.311.284-.609.582a1.75 1.75 0 0 0 1.237 2.99z" />
      <path d="m51.522 16.388a15.953 15.953 0 0 1 7.086-1.638h10.785a16.021 16.021 0 0 1 15.7 12.5 1.75 1.75 0 1 0 3.412-.779 19.5 19.5 0 0 0 -19.112-15.221h-10.785a19.415 19.415 0 0 0 -8.628 2 1.75 1.75 0 1 0 1.542 3.142z" />
      <path d="m68.667 73.624a1.75 1.75 0 1 0 -3.5 0 1.167 1.167 0 0 1 -2.333 0 1.75 1.75 0 0 0 -3.5 0 4.667 4.667 0 0 0 9.333 0z" />
    </g>
</svg>