<svg id="Capa_1" enable-background="new 0 0 512 512" height="512" viewBox="0 0 512 512" width="512" xmlns="http://www.w3.org/2000/svg"><path d="m223.153 98.596c9.289 25.556-17.499 47.27-21.58 50.391-.336.257-.732.401-1.154.419-5.134.227-39.626.773-48.916-24.783-13.513-37.174 7.48-69.065 11.979-75.279.492-.679 1.338-.987 2.152-.781 7.439 1.878 44.007 12.859 57.519 50.033z" fill="#ffca28"/><path d="m223.153 98.596c-13.153-36.187-48.144-47.55-56.855-49.861 11.1 7.675 22.513 19.349 28.852 36.789 9.289 25.556-17.499 47.27-21.58 50.391-.336.257-.732.401-1.154.419-1.834.081-7.424.196-14.265-.846 13.51 14.5 38.005 14.106 42.268 13.918.422-.019.819-.163 1.154-.419 4.082-3.121 30.87-24.835 21.58-50.391z" fill="#ffb300"/><path d="m226.29 196.841-42.054-115.692c-1.415-3.891-5.718-5.9-9.61-4.486-3.894 1.414-5.903 5.715-4.488 9.607l42.053 115.692c3.387 9.316 17.49 4.209 14.099-5.121z" fill="#bf6724"/><path d="m346.54 389.022c0 41.132-28.866 74.478-64.479 74.478h-217.575v-148.947h217.574c35.614 0 64.48 33.347 64.48 74.469z" fill="#8c4815"/><ellipse cx="64.484" cy="389.026" fill="#ffe8cf" rx="64.484" ry="74.472"/><path d="m428.641 255.942c0 41.132-28.866 74.478-64.479 74.478h-217.574v-148.947h217.574c35.613 0 64.479 33.347 64.479 74.469z" fill="#a35418"/><path d="m512 389.022c0 41.132-28.866 74.478-64.479 74.478h-217.574v-148.947h217.574c35.613 0 64.479 33.347 64.479 74.469z" fill="#bf6724"/><g fill="#8c4815"><path d="m302.691 237.329c0-4.14-3.358-7.497-7.5-7.497h-86.152c-4.142 0-7.5 3.357-7.5 7.497s3.358 7.497 7.5 7.497h86.152c4.142 0 7.5-3.356 7.5-7.497z"/><path d="m426.06 276.842c-1.32 5.258-3.14 10.286-5.39 14.994h-125.48c-4.14 0-7.5-3.349-7.5-7.497 0-4.138 3.36-7.497 7.5-7.497z"/><path d="m341.729 244.826h29.244c4.142 0 7.5-3.357 7.5-7.497s-3.358-7.497-7.5-7.497h-29.244c-4.142 0-7.5 3.357-7.5 7.497 0 4.141 3.358 7.497 7.5 7.497z"/></g><path d="m448.021 363.033c0-4.14-3.358-7.497-7.5-7.497h-150.132c-4.142 0-7.5 3.357-7.5 7.497s3.358 7.497 7.5 7.497h150.132c4.143 0 7.5-3.356 7.5-7.497z" fill="#a35418"/><path d="m508.63 412.838c-1.55 5.288-3.59 10.316-6.08 14.994h-96.81c-4.14 0-7.5-3.359-7.5-7.497 0-4.148 3.36-7.497 7.5-7.497z" fill="#a35418"/><path d="m352.139 412.834h-24.135c-4.142 0-7.5 3.357-7.5 7.497s3.358 7.497 7.5 7.497h24.135c4.142 0 7.5-3.357 7.5-7.497s-3.358-7.497-7.5-7.497z" fill="#a35418"/><ellipse cx="146.586" cy="255.946" fill="#ffe8cf" rx="64.484" ry="74.472"/><ellipse cx="229.945" cy="389.026" fill="#ffe8cf" rx="64.484" ry="74.472"/><path d="m64.484 340.239c-23.85 0-43.252 21.886-43.252 48.787 0 4.14 3.358 7.497 7.5 7.497s7.5-3.357 7.5-7.497c0-18.633 12.674-33.793 28.252-33.793s28.252 15.16 28.252 33.793-12.674 33.792-28.252 33.792c-4.142 0-7.5 3.357-7.5 7.497s3.358 7.497 7.5 7.497c23.849 0 43.252-21.885 43.252-48.786s-19.403-48.787-43.252-48.787z" fill="#f2cdae"/><path d="m190.055 255.946c0-27.039-19.5-49.037-43.469-49.037s-43.47 21.998-43.47 49.037 19.5 49.037 43.47 49.037c4.142 0 7.5-3.357 7.5-7.497s-3.358-7.497-7.5-7.497c-15.698 0-28.47-15.272-28.47-34.043s12.771-34.043 28.47-34.043 28.469 15.272 28.469 34.043c0 4.14 3.358 7.497 7.5 7.497s7.5-3.357 7.5-7.497z" fill="#f2cdae"/><path d="m229.945 338.143c-4.142 0-7.5 3.357-7.5 7.497s3.358 7.497 7.5 7.497c16.579 0 30.067 16.1 30.067 35.889s-13.488 35.888-30.067 35.888-30.067-16.1-30.067-35.888c0-4.14-3.358-7.497-7.5-7.497s-7.5 3.357-7.5 7.497c0 28.057 20.217 50.882 45.067 50.882s45.067-22.826 45.067-50.882-20.217-50.883-45.067-50.883z" fill="#f2cdae"/></svg>