 <svg viewBox="0 0 512.001 512.001" xmlns="http://www.w3.org/2000/svg">
    <path
      d="m485.271 240.532c0-35.798-21.77-66.511-52.792-79.623 5.478-10.59 8.592-22.602 8.592-35.348 0-42.561-34.502-77.063-77.063-77.063-12.126 0-23.593 2.809-33.799 7.798-9.068-32.469-38.847-56.296-74.209-56.296s-65.14 23.827-74.209 56.296c-10.206-4.99-21.673-7.798-33.799-7.798-42.561 0-77.063 34.502-77.063 77.063 0 12.746 3.113 24.758 8.592 35.348-31.022 13.113-52.792 43.825-52.792 79.623 0 46.393 36.576 84.196 82.459 86.265 6.397 23.17 31.1 40.443 60.622 40.443 16.732 0 31.91-5.557 43.095-14.581 11.186 9.024 26.364 14.581 43.095 14.581s31.91-5.557 43.095-14.581c11.186 9.024 26.364 14.581 43.095 14.581 29.522 0 54.225-17.273 60.622-40.444 45.883-2.069 82.459-39.871 82.459-86.264z"
      fill="#129b12"
    />
    <path
      d="m251.377.153c-.949.057-1.894.125-2.833.217-.288.028-.574.06-.86.091-1.009.109-2.013.235-3.01.383-.187.027-.374.054-.56.083-1.186.185-2.366.391-3.534.629-.002 0-.004.001-.006.001 20.23 4.114 39.171 18.204 51.171 35.964 8.498 12.577 23.017 19.827 38.161 18.797.101-.007.201-.014.302-.021-9.067-32.47-38.846-56.297-74.208-56.297-1.24 0-2.471.036-3.696.094-.31.015-.617.041-.927.059z"
      fill="#097c09"
    />
    <path
      d="m432.479 160.909c5.479-10.59 8.592-22.602 8.592-35.348 0-42.561-34.502-77.063-77.063-77.063-5.282 0-10.438.534-15.42 1.548 35.166 7.147 61.633 38.239 61.633 75.515 0 12.746-3.113 24.758-8.592 35.348 31.022 13.113 52.792 43.825 52.792 79.623 0 46.393-36.576 84.195-82.458 86.264-5.243 18.991-22.787 34.012-45.199 38.816 4.933 1.059 10.1 1.627 15.427 1.627 29.522 0 54.225-17.273 60.622-40.444 45.883-2.069 82.458-39.871 82.458-86.264 0-35.797-21.768-66.51-52.792-79.622z"
      fill="#097c09"
    />
    <path
      d="m200.82 339.895c-6.95 11.788-35.752 24.969-46.433 25.718 1.175.252 2.366.472 3.567.668.096.016.192.033.289.048 1.217.193 2.446.359 3.688.492.032.003.064.005.096.009 1.117.118 2.246.203 3.381.27.276.016.553.032.831.046 1.183.057 2.372.095 3.572.095 15.26 0 29.216-4.633 40.042-12.292l1.898-1.38-9.666-15.859z"
      fill="#009000"
    />
    <path
      d="m294.533 359.573 33.016-52.099c2.612-4.121 1.821-9.532-1.86-12.734-3.931-3.419-9.842-3.196-13.504.511l-24.315 24.617c-3.225 3.265-8.75.55-8.136-3.997l7.15-52.976c.764-5.66-3.42-10.786-9.119-11.171l-6.699-.453c-5.034-.34-9.514 3.17-10.389 8.139l-12.763 72.513c-.71 4.033-5.831 5.363-8.414 2.187l-39.972-49.159c-2.766-3.402-7.444-4.572-11.485-2.873l-6.999 2.941c-5.541 2.329-7.733 9.027-4.641 14.181l41.076 68.467c5.948 9.915 8.401 21.547 6.914 33.014-5.323 41.057-11.936 79.778-38.997 111.32h141.204c-28.968-33.766-36.114-75.757-39.948-120.035-.981-11.371 1.772-22.754 7.881-32.393z"
      fill="#bf6101"
    />
    <path
      d="m327.549 307.474c2.612-4.121 1.822-9.532-1.86-12.734-3.931-3.419-9.842-3.196-13.504.511l-10.859 10.993-13.456 13.623c-3.225 3.265-8.75.55-8.136-3.997l7.15-52.976c.745-5.517-3.216-10.514-8.694-11.12l-20.105 124.965c-.338 1.614-.602 3.243-.786 4.884-.383 3.415-.434 6.878-.135 10.341 3.836 44.279 10.982 86.27 39.95 120.036h29.488c-28.968-33.766-36.114-75.757-39.948-120.035-.984-11.37 1.77-22.752 7.878-32.392z"
      fill="#9a4d01"
    />
    <path
      d="m241.333 60.5c-21.621 0-40.232 12.832-48.669 31.29-8.716-6.159-19.346-9.79-30.831-9.79-29.547 0-53.5 23.953-53.5 53.5 0 9.749 2.621 18.881 7.177 26.752-25.656 3.945-45.304 26.115-45.304 52.875 0 29.547 23.953 53.5 53.5 53.5s171.127-125.08 171.127-154.627-23.951-53.5-53.5-53.5z"
      fill="#28a528"
    />
  </svg>